<svg version="1" xmlns="http://www.w3.org/2000/svg" width="933.333" height="933.333" viewBox="0 0 700.000000 700.000000"><path d="M271.8 104.5c-8.8 2.2-15.6 8.9-18.3 17.9-3.9 12.9 3.8 27.2 17.1 31.6l4.9 1.7.1 21.2c.1 12.2.5 21.6 1.1 22.2.6.6 28.9.9 76.6.9H429v45.5H239l-.1-7c0-3.8-.2-14.9-.4-24.5s-.4-22.5-.4-28.5c-.1-6.1-.6-11.7-1.1-12.5-.7-1.2-4.7-1.5-23.3-1.5h-22.5l-1.2-4.9c-1.8-7-9.6-14.8-16.7-16.9-13.2-3.9-26.7 2.4-31.9 14.8-4.8 11.5.2 25.7 11.3 32.2 6.5 3.8 17.5 4 24.3.4 6.6-3.4 10.8-8.6 13.4-16.4.3-.9 1.1-1.7 1.8-1.8 6.6-.4 38.1-.3 38.3.2.2.3.6 16.4.9 35.9.3 23.7.9 35.7 1.6 36.4.8.8 29 1.1 97.8 1.3 53.2.1 97 .2 97.5.2.4.1.7 9.3.7 20.6V294l-4.2.1c-2.4 0-20.6.1-40.6.1-28.9.1-36.4.4-37.3 1.4-.8.9-1.1 9.4-1.2 25.4v24H238v-24.5c0-22.4-.1-24.5-1.8-25.4-1-.5-18.1-.9-41.4-.9-21.8 0-40.1-.3-40.7-.6-.6-.4-1.1-1.4-1.1-2.3 0-2.7-4.7-9.9-8.2-12.4-6.1-4.5-8.8-5.4-16.7-5.4-6.5 0-8.3.4-12.3 2.7-8.9 5.3-13.1 12.8-13.1 23.4.1 14 12.8 25.7 27 24.8 6.6-.5 10.9-2.2 15.8-6.5 3.7-3.3 8.5-11.7 8.5-15 0-1.5 3.7-1.6 38.5-1.6H231v24.1c0 17.5.3 24.5 1.2 25.4 1.7 1.7 117.9 1.7 119.6 0 .9-.9 1.2-7.9 1.2-25.4v-24.2h38l38-.1v92.4H205.5l-.3-22.9c-.1-14.9-.6-23.4-1.3-24.3-.9-1-12.5-1.3-61.3-1.3H82.4l-2.3-5.5c-5.9-14.1-23.9-20.3-36.5-12.6-8.6 5.4-13 13-12.8 22.6.1 14.6 11.1 25.5 25.8 25.5 11.3 0 21.9-8 24.6-18.7l1-4.3h115.5l.2 23.2c.1 18.8.4 23.5 1.5 24.4 1 .7 37.2 1 115.5 1l114.1-.1V446H281.8c-87.3 0-147.9.4-148.7.9-1.3.8-1.5 6.4-1.5 35 0 24.4.3 34.4 1.1 35.2.8.8 7.3 1.2 20.7 1.2 17.4-.1 19.6.1 19.6 1.6.1 3.1 3.7 9.6 7.5 13.3 9.5 9.4 24.7 9.7 34.9.8 11.4-10.1 11.7-27.1.7-37.8-13.1-12.7-35.7-7.5-41.8 9.7-2 5.8.6 5.2-21.8 5.3-6.9 0-12.8-.2-13.1-.5-.5-.4-.7-32.1-.5-53l.1-4.7h290v42.6h-80.1c-44-.1-80.9.2-82 .6-1.8.7-1.9 1.9-1.9 24.7V545l-2.7.6c-18.5 4.5-25.8 27.5-13.2 41.8 9.3 10.6 25.4 11.9 35.9 2.9 9.2-7.9 11.8-20.1 6.5-30.8-3.2-6.6-7.9-10.8-14.5-13.2l-5-1.8.2-20.9.3-20.9 77.5.1c42.6 0 77.8.1 78.3.1.4.1.7 11.3.7 24.9 0 18 .3 25.1 1.2 26 1.5 1.5 4.5 1.6 5.4.1.4-.7.7-50.2.7-110.1V334.9l2.1.5c1.1.3 12 2.3 24.1 4.6 12.1 2.3 23 4.3 24.3 4.6 1.2.2 3.2.6 4.5.8 1.2.2 15.7 3 32.2 6.1 16.5 3.1 31.1 5.9 32.5 6.1 1.4.2 7.2 1.3 13 2.4 5.8 1.1 11.6 2.2 13 2.5 3.8.7 6.4 1.2 20.5 3.9 7.2 1.4 14.4 2.7 16 3 16.3 2.7 27.5 5.2 27.5 6 0 .5-.2.7-.5.4-.4-.3-2.5-.1-4.8.4s-5.1 1.1-6.2 1.4c-1.1.2-11 2.2-22 4.5-11 2.2-20.9 4.3-22 4.5-1.1.2-5.1 1-9 1.8-13.6 3-51 10.8-53.5 11.2-3.6.7-24.3 4.9-39 8-6.9 1.4-13.4 2.7-14.5 3-15.8 3.1-21 4.4-22.3 5.8-2.4 2.4-.5 4.9 4.9 6.2 2.4.7 13.9 3.7 25.4 6.7 31.7 8.3 60.8 15.9 62.5 16.3.8.1 13.4 3.5 28 7.4 14.6 3.8 28.7 7.5 31.3 8.1 2.7.6 4.5 1.4 4 1.8-.4.4-24.9 9.4-54.3 20.1-29.4 10.6-54.1 19.8-54.7 20.3-3.6 2.7-1.2 4.6 29 22.8 16.6 10 31.4 18.9 33 19.6 1.5.8 2.7 1.8 2.7 2.2 0 .4-4.2 2.9-9.2 5.7l-9.3 4.9v37l2.4.3c1.3.2 2.8-.2 3.2-1 .5-.7.9-8.1.9-16.5v-15.2l11.4-6.1c6.3-3.3 11.7-6.8 12-7.7.4-1-.1-2.4-1.1-3.3-1-1-15.9-10.2-33.1-20.5-17.2-10.3-31.1-18.9-31-19 .2-.1 3.5-1.4 7.3-2.7 3.9-1.4 22.8-8.3 42-15.3 19.3-7 41.1-14.9 48.5-17.6 16.4-6 16.5-6 16.5-9 0-1.9-.8-2.7-4-3.7-2.2-.8-4.7-1.5-5.5-1.7-.8-.2-10.5-2.6-21.5-5.5s-26.7-7-34.9-9.1c-8.2-2.2-20-5.3-26.2-6.9-6.3-1.7-16.7-4.4-23.1-6.1-10.5-2.7-19.8-5.1-34.3-9-4.5-1.2-4.3-1.2 23-7 15.1-3.2 28.6-6 30-6.2 1.4-.3 12.9-2.6 25.5-5.2 12.7-2.6 23.7-4.8 24.5-5 .8-.2 10.3-2.2 21-4.4 10.7-2.3 20.6-4.3 22-4.6 2.7-.5 16.2-3.3 19.5-3.9 1.1-.3 7.6-1.6 14.5-3 13-2.7 15.8-4.2 14-7.6-.6-1.1-2.7-2-5.6-2.5-2.5-.3-5.6-.8-6.7-1.1-3-.6-42.6-8.2-45.7-8.7-3.5-.7-30.5-5.7-33.2-6.3-3.2-.6-13.8-2.5-16.8-3-2.2-.4-35.6-6.7-42-7.9-5.1-1-7.6-1.5-13-2.5-3-.6-6.6-1.2-8-1.5-4.4-.9-39.5-7.4-41.8-7.8-2.9-.4-4-1.7-1.6-1.8 1-.1 2.2-.1 2.6 0 .4 0 1.8-.3 3.1-.8s3.9-1.2 5.8-1.5c1.9-.3 6.8-1.2 10.9-2.1 4.1-.9 8.5-1.9 9.8-2.1 1.2-.2 12.9-2.7 26-5.4 13-2.8 25.1-5.3 26.7-5.6 1.7-.2 3.7-.7 4.5-.9.8-.2 2.7-.7 4.3-1 1.5-.3 3.7-.7 5-1 1.2-.3 3.1-.7 4.2-.9 6.4-1.3 18.8-3.9 31.5-6.6 12.7-2.7 19-4 26.5-5.5 28.5-5.9 29.1-6 29.9-8 1.3-3.5-.6-4.2-34.9-13.5-9.4-2.5-65-17.4-75-20.1-4.4-1.2-9.3-2.5-11-3-1.6-.5-7.3-2.1-12.5-3.5-5.2-1.3-12-3.2-15-4l-5.5-1.6 17.5-6.5c9.6-3.5 20.9-7.7 25-9.3 4.1-1.6 18.5-7 32-12 34.8-13 33.5-12.4 33.8-14.6.2-1.1-.5-2.7-1.5-3.5-1.4-1.2-33-20.7-50.3-30.9-.8-.5-4.8-2.9-8.7-5.3l-7.3-4.4 5.3-2.8c9.8-5.3 12.2-6.7 13.5-7.7.9-.8 1.2-5.7 1.2-18.4 0-15.9-.1-17.3-1.9-17.9-4.7-1.4-5-.3-5.3 16.3l-.3 15.7-11.2 6c-11.1 5.9-12.7 7.3-11.8 9.7.3.7 15.3 10.3 33.4 21.3 18.2 11 32.7 20.3 32.3 20.7-.6.6-14.8 6-42.2 16.1-46.4 17.2-66.7 25-67.9 26.2-1.8 1.8-.8 4.3 2.3 5.4 1.3.6 8.4 2.5 15.7 4.5 7.4 1.9 19.5 5.1 26.9 7.1 7.4 2 14.2 3.8 15 4 .8.2 8 2.1 16 4.3 27.8 7.6 41.6 11.4 53 14.4 22.1 5.9 20.8 5.5 18 6.2-2.6.6-29.5 6.4-34 7.2-1.4.3-10.8 2.3-21 4.4-10.2 2.1-19.6 4.1-21 4.4-3 .5-36.6 7.6-39.5 8.3-1.1.2-3.3.6-5 .9-1.6.3-7.9 1.6-14 2.9-32.1 7-42.1 9-48.5 10.1-1.9.3-3.8.8-4.1 1-.3.2-.6-40.8-.6-91 0-50.3-.3-91.9-.7-92.5-.9-1.5-3.9-1.4-5.4.1-.9.9-1.2 7.9-1.2 25.5V193H283v-19c0-17.3.2-19.1 1.8-19.6 5.5-1.8 7.7-3.1 11.1-6.4 5.8-5.7 7.6-10.3 7.6-19 0-6.3-.4-8.2-2.7-12-6.4-10.8-17.2-15.5-29-12.5zm12.7 7.2c3.9 1.1 8.8 5.7 10.7 10.1 4.1 9.1.2 19.9-8.7 24.2-12.5 6-26.7-2.6-26.8-16.4-.1-13.2 11.6-21.7 24.8-17.9zm-111 45.6c7.1 3.7 11 10.8 10.3 18.7-1 10.1-8.1 16.4-18.5 16.5-5.2 0-6.7-.4-10.4-3-8.3-5.9-10.6-16.2-5.5-24.9 4.7-8.1 16.1-11.5 24.1-7.3zm-34.7 126c8.6 5.7 10.8 18.6 4.5 26.5-4.4 5.4-8.7 7.6-14.8 7.5-13.4-.1-22.1-12.3-17.8-24.8 3.9-11.3 17.9-16 28.1-9.2zm-73.9 49.6c1.9 1 4.9 3.4 6.5 5.5 2.8 3.4 3.1 4.5 3.1 10.5 0 8.7-3.3 14.2-10.2 17.3-18.8 8.3-35.3-14.6-21.7-29.8 5.4-6 14.6-7.4 22.3-3.5zm141.9 165.2c6 3 10.2 9.5 10.2 16.1 0 6.3-1.9 10.6-6.3 14.5-15.6 13.6-38.1-4.2-28.7-22.7 2.3-4.5 5-6.9 9.7-8.6 5.5-1.9 10-1.7 15.1.7zM277 554c7.4 3.8 11.3 11.7 9.8 19.9-2 10.9-12.2 17.4-23.1 14.6-11-2.8-16.8-14.9-12.3-25.5 3.9-9.5 16.2-13.8 25.6-9z"/></svg>