<svg version="1" xmlns="http://www.w3.org/2000/svg" width="933.333" height="933.333" viewBox="0 0 700.000000 700.000000"><path d="M268.4 101.8c-19.4 6.9-25.7 31.3-12.2 46.7 3.6 4.1 13.8 10.6 13.8 8.8 0-.4.5-.2 1.1.4.7.7 1.1 8.1 1.1 20.9 0 11 .4 20.7.9 21.6.5.9 1.9 2 3.1 2.4 1.3.5 35.4.8 75.8.8l73.5.1.1 19.3.2 19.2H242.1l-.1-16.8c-.2-31.9-.7-51.7-1.4-53.3-1.4-3.3-5.4-3.9-26-3.9h-20.3l-1.8-4.7c-2.6-6.8-10.7-14.5-17.4-16.8-6.8-2.2-16.9-1.7-22.6 1.3-5.5 2.8-11.3 8.8-13.9 14.2-1.6 3.4-2.1 6.4-2.1 12.5.1 6.9.4 8.7 3 13.4 7.5 13.6 24 19.2 37.8 12.8 6.2-2.9 11.5-8 14.6-14.2l2.2-4.5 16.5.1c12 0 16.4.3 16.5 1.2.3 2.6.7 23.3 1 45.2.3 22.3.4 23.1 2.6 25.2 2.5 2.6-11.8 2.4 117.8 2.4h77.1v17.4l.1 17.4h-39.6l-39.6-.1-2.1 2.6c-2.1 2.4-2.2 3.3-2.2 24.6.1 12.1-.2 22.4-.6 22.7-.6.7-97 1.2-99.1.6-.7-.2-1-8.4-1-23 0-21.5-.1-22.9-2-25.1l-2.1-2.4h-80.5l-2-4.3c-2.8-6-7.8-11-14-14.2-7.1-3.5-16.9-3.7-24.4-.4-14.7 6.5-21.6 24.9-14.7 39.2 10.8 22.3 42.2 22.3 52.8.1 1.5-3.1 2.9-5.9 3-6.1.2-.2 58.3-.4 68.4-.1 1.3 0 1.5 3 1.5 22.7-.1 22-.1 22.7 2.1 25.2l2.2 2.6 60.1-.1c59.9 0 60.2 0 62.3-2.1 2-2 2.1-3.1 2.2-25l.1-22.8h69l.1 42.2.1 42.3H208.4v-22.2l-.1-22.1-2.5-2.2-2.6-2.2-56.3-.1c-31 0-57.8-.1-59.4-.1-2.6-.1-3.3-.7-4.3-3.4-4.7-12.9-21.8-20.6-35.9-16.2-8.3 2.6-16.5 10.9-18.9 19-5.3 18.4 7.1 36.6 25.8 38 6.9.5 11.9-.8 18-4.7 4.8-3 11-11.1 12.1-15.8l.6-2.6h54.6c30 0 54.5.2 54.6.5 0 .3.1 10.4.2 22.4.2 21.7.2 21.9 2.6 23.8 2.3 1.8 5.6 1.9 115.6 1.9h113.2l-.1 19.2-.1 19.3-145 .1c-79.7.1-145.8.2-146.7.3-1 0-2.6 1-3.6 2.2-1.8 1.9-2 4-2 37.1l-.1 35 2.4 2.4c2.3 2.3 2.8 2.3 18.7 2.3h18.3c1.4.1 2.7 1.6 4.2 4.8 6.4 13.9 22.2 20.6 36.6 15.7 6.5-2.2 13.9-9.1 16.8-15.6 3-7 3.1-17.3.2-23.9-4.2-9.4-15-16.8-25.5-17.3-11.9-.6-23.9 6.9-28.3 17.5l-1.9 4.7h-13.7l-13.7-.1v-25.3c-.1-18.9.2-25.4 1.1-25.5.7-.1 64.5-.2 141.8-.3l140.6-.1V492h-3.1c-1.7.1-37.2.1-78.8.1-41.7.1-76.7.3-77.8.6-4 1-4.4 3.8-4.5 26.7v21.9l-5.4 2.8c-6.8 3.6-10.2 6.7-13.6 13.1-7.5 13.7-1.5 32.1 12.9 39.6 4.3 2.2 6.4 2.7 13.1 2.7 7 0 8.7-.4 13.2-2.9 7-3.9 11-8.2 13.8-15.2 6-14.7-1.4-32.4-15.9-37.9l-4.1-1.6v-35.6l75 .1 75 .1.1 23.9.1 23.9 2.8 2.4c2.1 1.8 3.5 2.3 5.4 1.8 6-1.5 5.6 6.2 5.8-110.3.1-58.7.2-107.3.2-108 .1-.9.8-1.1 2.1-.7 1.1.3 3.2.8 4.7 1.1 5.7 1 30 5.5 34.3 6.4 2.5.6 6.1 1.2 8 1.5 1.9.3 8 1.5 13.5 2.5 5.5 1.1 11.6 2.2 13.5 2.5 1.9.3 4.2.8 5 1 .8.2 2.9.7 4.5.9 1.7.3 12.7 2.4 24.5 4.6 24.8 4.7 24.7 4.7 32 6 3 .6 6.4 1.2 7.5 1.4 15.5 3 28.6 5.4 33.8 6.2 3.6.6 5.8 2 3.4 2.1-1 .1-25.6 5.1-34.2 6.9-1.1.3-4 .9-6.5 1.4-2.5.5-13 2.7-23.5 4.9-10.4 2.1-22.6 4.7-27 5.6-4.4.9-16.8 3.4-27.5 5.6-47.4 9.7-53.7 11-56.2 12-4.5 1.8-5.5 8.4-1.7 11.6 1.2.9 7 2.6 19.9 5.9.8.2 6.7 1.7 13 3.4 6.3 1.6 12.8 3.2 14.4 3.5 1.6.3 3.3.8 3.7 1.1.6.3 7 2.1 21.9 5.9.8.2 4.2 1.1 7.5 2 3.3.9 6.7 1.8 7.5 2 .8.2 13.9 3.6 29 7.5 15.1 4 28.1 7.3 28.8 7.3 2.5.1 1.1 1.6-2.5 2.7-2.1.7-7.2 2.5-11.3 4-4.1 1.6-14 5.2-22 8-8 2.9-20.6 7.5-28 10.2-7.4 2.8-18 6.6-23.5 8.5-13.3 4.6-16.1 7.6-12.8 13.3.9 1.5 12.9 9.3 31.4 20.4 16.4 9.9 29.9 18.2 29.9 18.5 0 .3-3.1 2.2-6.8 4.2-3.7 1.9-7.2 4.4-7.7 5.6-.6 1.2-1 9.6-1 20.2.1 15 .3 18.4 1.6 19.7 2.5 2.4 7.1 2.6 9.9.5 2.4-1.9 2.4-2.2 2.5-16.8 0-8.1.4-15.3.8-16 .4-.6 4.6-3.1 9.3-5.5 10.6-5.3 13.4-7.8 13.4-11.7 0-3.9-.5-4.3-33.5-24.1-14.8-8.9-27.1-16.3-27.3-16.4-.3-.3 14.7-5.8 66.8-24.6 40.8-14.7 44-16.3 44-21.4 0-3.7-3.5-5.8-14.8-8.8-5.9-1.5-18.3-4.8-27.7-7.3-9.3-2.4-19.7-5.1-23-6-3.3-.9-13.9-3.6-23.5-6.1-9.6-2.5-23.3-6.1-30.5-8-7.1-1.9-15.2-3.9-17.9-4.5-6.6-1.5-4.4-2.5 12-5.5 1.6-.3 11.3-2.3 21.6-4.4 10.3-2.2 19.9-4.2 21.5-4.5 1.5-.2 3.7-.7 4.8-.9 5.7-1.3 16.4-3.5 18.5-4 11.5-2.2 19.1-3.8 22.5-4.6 3.7-.9 70-14.7 74.9-15.6 2.6-.5 5.6-4 5.6-6.6 0-5-2.8-6.7-14.5-8.8-3.3-.5-7.1-1.2-8.5-1.5-1.4-.3-4.1-.8-6-1.1-1.9-.4-4.4-.8-5.5-1.1-1.1-.2-4.5-.8-7.5-1.4-3-.6-12.5-2.3-21-3.9s-16.6-3.1-18-3.4c-3.2-.5-23.7-4.4-27-5.1-1.4-.3-7.2-1.4-13-2.5-20.1-3.7-42.5-7.9-48-9-3-.6-7.1-1.3-9-1.6-1.9-.3-5.4-1-7.8-1.5-2.3-.5-5.7-1.1-7.5-1.4-11.1-1.8-10.9-1.8 18.8-7.9 1.1-.3 9.7-2.1 19-4.1 9.4-2 24.7-5.1 34-7.1 9.4-1.9 19.9-4.1 23.5-4.9 6.7-1.5 28.6-6.1 33-6.9 9.3-1.8 35.8-7.6 37.3-8.1 4-1.6 5-8.1 1.7-11-2-1.8-13.3-5-83-23.5-10.2-2.7-20.7-5.6-23.5-6.4-2.7-.8-12.3-3.3-21.2-5.7-9-2.3-16.2-4.4-16-4.5.2-.2 22.1-8.5 48.7-18.4 26.7-10 49.1-18.7 49.8-19.4 2.4-2.3 2.4-6.3 0-9-1.3-1.4-11.7-8.2-23.3-15.2-28.1-17-38.9-23.6-39.3-23.9-.1-.1 2.8-1.9 6.6-3.8 3.8-2 7.5-4.4 8.3-5.3 1.5-1.8 2.1-31.8.7-37.2-1.5-5.6-10.6-6.3-12.5-.8-.4 1.2-.7 8.3-.8 15.8 0 7.5-.3 13.9-.5 14.1-.3.2-5 2.8-10.5 5.7-5.5 3-10.5 6.1-11.2 6.9-1.9 2.4-1.5 6.8.6 8.8 1.1 1 14.9 9.6 30.6 19.2 15.7 9.6 28.8 17.8 29 18.2.3.4-1.9 1.5-4.7 2.4-2.9 1-7.3 2.6-9.8 3.6-2.5 1-23.4 8.8-46.5 17.4-23.1 8.6-42.8 16.4-43.7 17.2-1 .9-1.8 3-1.8 4.8 0 4.5 2.2 6 13 8.9 5.2 1.4 18.5 5 29.5 8 11 2.9 31.3 8.4 45 12.1 40.2 10.8 49.8 13.5 50.2 13.9.3.3-12.3 3.1-19.2 4.2-1.6.3-4.6.9-6.5 1.4-2.9.8-8.6 2-21 4.5-.8.2-10.5 2.2-21.5 4.5s-20.9 4.3-22 4.5c-1.1.3-5.1 1.1-9 1.9-3.8.9-8.1 1.8-9.5 2-1.4.2-5.8 1.2-9.7 2-4 .9-8.7 1.8-10.5 2.1-1.8.3-4.9 1-6.8 1.5-9.6 2.4-34.3 7.1-34.8 6.6-.3-.3-.6-40.9-.6-90.2l-.1-89.6-2.4-1.9c-1.3-1-2.9-1.9-3.7-1.9-2.9 0-6.5 2.5-7.1 4.9-.4 1.4-.6 11.6-.5 22.6 0 11-.1 20.9-.3 22-.4 2-1.2 2-69.8 2h-69.4V157.8l3.1-1.4c18.2-7.7 23.7-30.5 11.1-45.9-7.3-8.9-21.1-12.7-32.1-8.7zm18.5 15.1c9 6.4 8.3 20.9-1.2 25.8-4.7 2.4-11.9 2.2-15.4-.3-5.3-3.9-7.5-8.3-7.1-14 .5-5.8 2.7-9.3 7.8-12.4 4.5-2.7 11.4-2.3 15.9.9zm-115.6 43.2c6.2 3.2 10 9.6 9.2 15.6-2.3 18.3-28.7 17.8-30.2-.6-.7-8.6 6.2-16.1 15-16.1 2.1 0 4.8.5 6 1.1zm-35 125.6c7.3 4.2 9.3 15.2 4.1 22-6.7 8.8-19.8 8.1-25.2-1.5-7.7-13.7 7.4-28.4 21.1-20.5zm-70.7 51.8c8.9 6.8 7.5 20.1-2.6 25.3-7.5 3.8-16.6.8-20.5-6.8-2.6-5-1.2-13.4 2.9-17.6 5-5 14.3-5.4 20.2-.9zm140 164.1c7.5 3.9 10.4 14.8 5.5 21.4-7.2 9.9-21 9.1-26.1-1.5-3.9-8.1-.9-16.9 7.2-20.5 4.7-2.1 8.4-1.9 13.4.6zm71.1 56.1c11.2 7.4 7.8 25.4-5.3 27.9-7.7 1.4-16.5-4.4-17.9-11.9-2.5-12.9 12.3-23.1 23.2-16z"/></svg>