<?xml version="1.0" encoding="UTF-8" standalone="no"?>
<!DOCTYPE svg PUBLIC "-//W3C//DTD SVG 1.1//EN" "http://www.w3.org/Graphics/SVG/1.1/DTD/svg11.dtd">
<svg width="100%" height="100%" viewBox="0 0 500 500" version="1.1" xmlns="http://www.w3.org/2000/svg" xmlns:xlink="http://www.w3.org/1999/xlink" xml:space="preserve" xmlns:serif="http://www.serif.com/" style="fill-rule:evenodd;clip-rule:evenodd;stroke-linecap:round;stroke-linejoin:round;">
    <path d="M309.08,103.74L309.08,394.07M308.57,356.59L191.78,356.59L191.78,391.35M207.78,407.56C207.78,416.337 200.557,423.56 191.78,423.56C183.003,423.56 175.78,416.337 175.78,407.56C175.78,398.783 183.003,391.56 191.78,391.56C200.554,391.565 207.77,398.786 207.77,407.56L207.78,407.56ZM125.78,367.72L96.55,367.72L96.55,321.14L308.55,321.14M157.72,367.72C157.72,376.497 150.497,383.72 141.72,383.72C132.943,383.72 125.72,376.497 125.72,367.72C125.72,358.943 132.943,351.72 141.72,351.72C150.497,351.72 157.72,358.943 157.72,367.72ZM308.57,212.72L249.48,212.72L249.48,248.86L167.48,248.86L167.48,212.7L107.67,212.7M107.67,213.39C107.67,222.167 100.447,229.39 91.67,229.39C82.893,229.39 75.67,222.167 75.67,213.39C75.67,204.613 82.893,197.39 91.67,197.39C100.447,197.39 107.67,204.613 107.67,213.39ZM56.23,249.54C56.23,258.317 49.007,265.54 40.23,265.54C31.453,265.54 24.23,258.317 24.23,249.54C24.23,240.763 31.453,233.54 40.23,233.54C49.007,233.54 56.23,240.763 56.23,249.54ZM308.57,283.6L143.82,283.6L143.82,248.84L56.23,248.84M308.57,177.94L168.15,177.94L167.45,125.11L134.09,125.11M134.09,124.41C134.09,133.187 126.867,140.41 118.09,140.41C109.313,140.41 102.09,133.187 102.09,124.41C102.09,115.633 109.313,108.41 118.09,108.41C126.867,108.41 134.09,115.633 134.09,124.41ZM308.57,140.41L199.43,140.41L199.43,108.41M214.72,92.41C214.72,101.187 207.497,108.41 198.72,108.41C189.943,108.41 182.72,101.187 182.72,92.41C182.72,83.633 189.943,76.41 198.72,76.41C198.72,76.41 198.72,76.41 198.72,76.41C207.497,76.41 214.72,83.633 214.72,92.41C214.72,92.42 214.72,92.43 214.72,92.44L214.72,92.41ZM391.78,80.28L391.78,102.4L374.88,111.48L426.25,142.73L342.62,173.93L458.71,205.18L309.61,236.37L475.75,267.62L324.68,298.82L444.22,330.07L358.22,361.27L408.65,391.65L391.83,400.57L391.77,423.46" style="fill:none;stroke:url(#_Linear1);stroke-width:10px;"/>
    <defs>
        <linearGradient id="_Linear1" x1="0" y1="0" x2="1" y2="0" gradientUnits="userSpaceOnUse" gradientTransform="matrix(-0.38,-352.22,352.22,-0.38,250.18,426.11)"><stop offset="0" style="stop-color:rgb(0,177,217);stop-opacity:1"/><stop offset="0.2" style="stop-color:rgb(41,139,215);stop-opacity:1"/><stop offset="0.75" style="stop-color:rgb(146,40,210);stop-opacity:1"/><stop offset="1" style="stop-color:rgb(188,0,208);stop-opacity:1"/></linearGradient>
    </defs>
</svg>
