<svg id="Laag_1" data-name="Laag 1" xmlns="http://www.w3.org/2000/svg" xmlns:xlink="http://www.w3.org/1999/xlink" viewBox="0 0 500 500"><defs><style>.cls-1{fill:none;stroke-linecap:round;stroke-linejoin:round;stroke-width:5px;fill-rule:evenodd;stroke:url(#Naamloos_verloop_40);}</style><linearGradient id="Naamloos_verloop_40" x1="250.18" y1="426.11" x2="249.8" y2="73.89" gradientUnits="userSpaceOnUse"><stop offset="0" stop-color="#00b1d9"/><stop offset="0.2" stop-color="#298bd7"/><stop offset="0.75" stop-color="#9228d2"/><stop offset="1" stop-color="#bc00d0"/></linearGradient></defs><title>Favico</title><path class="cls-1" d="M309.08,103.74V394.07m-.51-37.48H191.78v34.76m16,16.21a16,16,0,1,1-16-16A16,16,0,0,1,207.77,407.56Zm-82-39.84H96.55V321.14h212M157.72,367.72a16,16,0,1,1-16-16A16,16,0,0,1,157.72,367.72Zm150.85-155H249.48v36.14h-82V212.7H107.67m0,.69a16,16,0,1,1-16-16A16,16,0,0,1,107.67,213.39ZM56.23,249.54a16,16,0,1,1-16-16A16,16,0,0,1,56.23,249.54ZM308.57,283.6H143.82V248.84H56.23m252.34-70.9H168.15l-.7-52.83H134.09m0-.7a16,16,0,1,1-16-16A16,16,0,0,1,134.09,124.41Zm174.48,16H199.43v-32m15.29-16a16,16,0,1,1-16-16A16,16,0,0,1,214.72,92.44ZM391.78,80.28V102.4l-16.9,9.08,51.37,31.25-83.63,31.2,116.09,31.25-149.1,31.19,166.14,31.25-151.07,31.2,119.54,31.25-86,31.2,50.43,30.38-16.82,8.92-.06,22.89"/></svg>