<?xml version="1.0" encoding="UTF-8" standalone="no"?>
<!DOCTYPE svg PUBLIC "-//W3C//DTD SVG 1.1//EN" "http://www.w3.org/Graphics/SVG/1.1/DTD/svg11.dtd">
<svg width="100%" height="100%" viewBox="0 0 1920 830" version="1.1" xmlns="http://www.w3.org/2000/svg" xmlns:xlink="http://www.w3.org/1999/xlink" xml:space="preserve" xmlns:serif="http://www.serif.com/" style="fill-rule:evenodd;clip-rule:evenodd;stroke-linejoin:round;stroke-miterlimit:2;">
    <g id="Thinkin-in-Sound" serif:id="Thinkin in Sound" transform="matrix(0.994303,0,0,0.994303,10.9373,2.36976)">
        <g transform="matrix(1.16355,0,0,1.16355,-157.01,-213.481)">
            <path d="M786,714.21L796.83,714.21L796.83,636.08L768.34,636.08L768.34,650.45L763.05,650.45L763.05,631L836,631L836,650.41L830.72,650.41L830.72,636.08L802.15,636.08L802.15,714.21L812.46,714.21L812.46,719.21L786,719.21L786,714.21Z" style="fill:rgb(0,117,217);fill-rule:nonzero;stroke:rgb(1,117,217);stroke-width:5.19px;"/>
        </g>
        <g transform="matrix(1.16355,0,0,1.16355,-157.01,-213.481)">
            <path d="M882.86,714.21L893.17,714.21L893.17,686.39C893.003,683.729 891.884,681.215 890.02,679.31C888.1,677.31 885.27,676.217 881.53,676.03C876.318,676.039 871.255,677.788 867.15,681C865.273,682.471 863.726,684.322 862.61,686.43C861.478,688.587 860.904,690.994 860.94,693.43L860.94,714.29L870.71,714.29L870.71,719.29L845.35,719.29L845.35,714.29L855.65,714.29L855.65,629.78L845.88,629.78L845.88,624.78L860.94,624.78L860.94,678.59L860.54,684.26C862.338,680.28 865.326,676.954 869.09,674.74C873.132,672.365 877.722,671.076 882.41,671C887.27,671 891.113,672.3 893.94,674.9C896.781,677.538 898.414,681.233 898.45,685.11L898.45,714.22L908.09,714.22L908.09,719.22L882.86,719.22L882.86,714.21Z" style="fill:rgb(0,117,217);fill-rule:nonzero;stroke:rgb(1,117,217);stroke-width:5.19px;"/>
        </g>
        <g transform="matrix(1.16355,0,0,1.16355,-157.01,-213.481)">
            <path d="M917.34,714.21L927.51,714.21L927.51,677L917.34,677L917.34,672L932.8,672L932.8,714.22L942.57,714.22L942.57,719.22L917.34,719.22L917.34,714.21ZM925.79,655.21C925.759,654.062 926.248,652.958 927.12,652.21C927.932,651.447 929.006,651.021 930.12,651.02C931.206,651.032 932.247,651.458 933.03,652.21C933.867,652.968 934.345,654.046 934.345,655.175C934.345,656.304 933.867,657.382 933.03,658.14C932.247,658.892 931.206,659.318 930.12,659.33C929.006,659.329 927.932,658.903 927.12,658.14C926.274,657.411 925.788,656.347 925.79,655.23L925.79,655.21Z" style="fill:rgb(0,117,217);fill-rule:nonzero;stroke:rgb(1,117,217);stroke-width:5.19px;"/>
        </g>
        <g transform="matrix(1.16355,0,0,1.16355,-157.01,-213.481)">
            <path d="M989.59,714.21L999.9,714.21L999.9,686.39C999.733,683.729 998.614,681.215 996.75,679.31C994.837,677.31 992.007,676.217 988.26,676.03C983.048,676.039 977.985,677.788 973.88,681C972.003,682.471 970.456,684.322 969.34,686.43C968.208,688.587 967.634,690.994 967.67,693.43L967.67,714.29L977.44,714.29L977.44,719.29L952.08,719.29L952.08,714.29L962.38,714.29L962.38,677L952.87,677L952.87,672L966.74,672L966.88,676.41C966.96,677.84 967.05,679.15 967.14,680.32C967.23,681.49 967.27,682.8 967.27,684.23C969.074,680.238 972.058,676.894 975.82,674.65C979.823,672.193 984.444,670.927 989.14,671C994,671 997.843,672.3 1000.67,674.9C1003.51,677.538 1005.14,681.233 1005.18,685.11L1005.18,714.22L1014.82,714.22L1014.82,719.22L989.59,719.22L989.59,714.21Z" style="fill:rgb(0,117,217);fill-rule:nonzero;stroke:rgb(1,117,217);stroke-width:5.19px;"/>
        </g>
        <g transform="matrix(1.16355,0,0,1.16355,-157.01,-213.481)">
            <path d="M1056.83,714.21L1063.17,714.21C1060.6,710.877 1058.01,707.543 1055.4,704.21C1052.79,700.877 1050.2,697.543 1047.62,694.21L1039.13,701.77L1039.13,714.25L1049.43,714.25L1049.43,719.25L1024.07,719.25L1024.07,714.25L1033.85,714.25L1033.85,629.78L1024.47,629.78L1024.47,624.78L1039.13,624.78L1039.13,695.35L1059.74,677L1051.81,677L1051.81,672L1076.25,672L1076.25,677L1066.74,677C1063.99,679.44 1061.49,681.71 1059.24,683.81C1056.99,685.91 1054.49,688.177 1051.74,690.61C1054.66,694.65 1057.62,698.6 1060.62,702.46C1063.62,706.32 1066.67,710.227 1069.78,714.18L1081.27,714.18L1081.27,719.18L1056.83,719.18L1056.83,714.21Z" style="fill:rgb(0,117,217);fill-rule:nonzero;stroke:rgb(1,117,217);stroke-width:5.19px;"/>
        </g>
        <g transform="matrix(1.16355,0,0,1.16355,-157.01,-213.481)">
            <path d="M1090.51,714.21L1100.68,714.21L1100.68,677L1090.51,677L1090.51,672L1106,672L1106,714.22L1115.77,714.22L1115.77,719.22L1090.54,719.22L1090.51,714.21ZM1098.97,655.21C1098.94,654.064 1099.43,652.963 1100.29,652.21C1101.1,651.45 1102.18,651.024 1103.29,651.02C1104.37,651.034 1105.41,651.459 1106.19,652.21C1107.03,652.968 1107.51,654.046 1107.51,655.175C1107.51,656.304 1107.03,657.382 1106.19,658.14C1105.41,658.891 1104.37,659.316 1103.29,659.33C1102.18,659.326 1101.1,658.9 1100.29,658.14C1099.46,657.402 1098.99,656.34 1099,655.23L1098.97,655.21Z" style="fill:rgb(0,117,217);fill-rule:nonzero;stroke:rgb(1,117,217);stroke-width:5.19px;"/>
        </g>
        <g transform="matrix(1.16355,0,0,1.16355,-157.01,-213.481)">
            <path d="M1162.77,714.21L1173.07,714.21L1173.07,686.39C1172.9,683.732 1171.79,681.219 1169.93,679.31C1168.01,677.31 1165.18,676.217 1161.44,676.03C1158.8,676.023 1156.17,676.47 1153.68,677.35C1151.29,678.178 1149.05,679.398 1147.06,680.96C1145.18,682.43 1143.63,684.281 1142.51,686.39C1141.38,688.549 1140.81,690.955 1140.84,693.39L1140.84,714.25L1150.62,714.25L1150.62,719.25L1125.25,719.25L1125.25,714.25L1135.56,714.25L1135.56,677L1126,677L1126,672L1139.88,672L1140.01,676.41C1140.1,677.84 1140.18,679.15 1140.27,680.32C1140.36,681.49 1140.4,682.8 1140.4,684.23C1142.21,680.24 1145.19,676.897 1148.95,674.65C1152.96,672.193 1157.58,670.927 1162.28,671C1167.13,671 1170.98,672.3 1173.81,674.9C1176.65,677.539 1178.28,681.234 1178.31,685.11L1178.31,714.22L1188,714.22L1188,719.22L1162.77,719.22L1162.77,714.21Z" style="fill:rgb(0,117,217);fill-rule:nonzero;stroke:rgb(1,117,217);stroke-width:5.19px;"/>
        </g>
        <g transform="matrix(1.16355,0,0,1.16355,-157.01,-213.481)">
            <path d="M1245.05,672L1259.2,672L1259.2,677L1249.29,677L1249.29,723.63C1249.34,727.44 1248.66,731.224 1247.29,734.78C1246.06,737.947 1244.22,740.84 1241.87,743.29C1239.61,745.626 1236.88,747.468 1233.87,748.7C1230.75,749.979 1227.41,750.657 1224.03,750.7C1220.23,750.611 1216.46,749.936 1212.87,748.7C1209.41,747.621 1206.26,745.72 1203.69,743.16L1207.69,739.25C1209.76,741.347 1212.32,742.906 1215.13,743.79C1218,744.772 1221.01,745.282 1224.04,745.3C1226.71,745.317 1229.36,744.782 1231.82,743.73C1234.22,742.706 1236.38,741.178 1238.14,739.25C1239.98,737.203 1241.42,734.829 1242.39,732.25C1243.48,729.376 1244.02,726.323 1243.99,723.25L1243.99,714.18C1244.07,713.25 1244.16,712.31 1244.25,711.34C1244.34,710.37 1244.43,709.43 1244.51,708.51C1243.74,710.105 1242.73,711.57 1241.51,712.85C1240.15,714.295 1238.58,715.528 1236.86,716.51C1234.91,717.614 1232.84,718.48 1230.68,719.09C1228.31,719.768 1225.85,720.105 1223.38,720.09C1219.87,720.1 1216.4,719.42 1213.15,718.09C1210.09,716.866 1207.27,715.093 1204.84,712.86C1202.49,710.666 1200.6,708.033 1199.26,705.11C1197.88,702.085 1197.18,698.795 1197.2,695.47C1197.19,692.185 1197.89,688.936 1199.26,685.95C1200.6,683.014 1202.5,680.363 1204.84,678.14C1209.87,673.452 1216.5,670.86 1223.37,670.9C1225.85,670.883 1228.31,671.243 1230.68,671.97C1232.87,672.633 1234.96,673.563 1236.92,674.74C1238.68,675.795 1240.28,677.113 1241.64,678.65C1242.8,679.944 1243.77,681.407 1244.49,682.99C1244.49,681.15 1244.56,679.3 1244.69,677.45C1244.82,675.6 1245,673.84 1245.05,672ZM1202.53,695.63C1202.51,698.246 1203.06,700.835 1204.13,703.22C1206.24,707.968 1210.15,711.691 1215,713.57C1217.62,714.602 1220.41,715.118 1223.23,715.09C1226.02,715.121 1228.8,714.605 1231.39,713.57C1233.82,712.606 1236.04,711.191 1237.94,709.4C1239.81,707.648 1241.31,705.544 1242.36,703.21C1243.44,700.826 1243.99,698.236 1243.97,695.62C1243.98,692.985 1243.43,690.377 1242.36,687.97C1241.32,685.612 1239.82,683.486 1237.94,681.72C1236.04,679.93 1233.82,678.512 1231.39,677.54C1228.79,676.514 1226.02,676.001 1223.23,676.03C1220.42,676.004 1217.62,676.516 1215,677.54C1212.56,678.492 1210.33,679.912 1208.44,681.72C1206.6,683.503 1205.12,685.625 1204.09,687.97C1203.04,690.381 1202.5,692.988 1202.53,695.62L1202.53,695.63Z" style="fill:rgb(0,117,217);fill-rule:nonzero;stroke:rgb(1,117,217);stroke-width:5.19px;"/>
        </g>
        <g transform="matrix(1.16355,0,0,1.16355,-157.01,-213.481)">
            <path d="M1308.07,714.21L1318.37,714.21L1318.37,636.08L1308.07,636.08L1308.07,631.08L1334.49,631.08L1334.49,636.08L1323.66,636.08L1323.66,714.21L1334.49,714.21L1334.49,719.21L1308.07,719.21L1308.07,714.21Z" style="fill:rgb(0,117,217);fill-rule:nonzero;stroke:rgb(1,117,217);stroke-width:5.19px;"/>
        </g>
        <g transform="matrix(1.16355,0,0,1.16355,-157.01,-213.481)">
            <path d="M1381.38,714.21L1391.68,714.21L1391.68,686.39C1391.52,683.73 1390.4,681.216 1388.54,679.31C1386.62,677.31 1383.79,676.217 1380.05,676.03C1374.84,676.027 1369.78,677.763 1365.67,680.96C1363.79,682.43 1362.24,684.281 1361.12,686.39C1359.99,688.549 1359.42,690.955 1359.45,693.39L1359.45,714.25L1369.23,714.25L1369.23,719.25L1343.87,719.25L1343.87,714.25L1354.17,714.25L1354.17,677L1344.66,677L1344.66,672L1358.53,672L1358.66,676.41C1358.75,677.84 1358.84,679.15 1358.92,680.32C1359,681.49 1359.06,682.8 1359.06,684.23C1360.86,680.236 1363.85,676.891 1367.61,674.65C1371.61,672.193 1376.23,670.927 1380.93,671C1385.79,671 1389.63,672.3 1392.46,674.9C1395.31,677.53 1396.95,681.222 1397,685.1L1397,714.21L1406.64,714.21L1406.64,719.21L1381.41,719.21L1381.38,714.21Z" style="fill:rgb(0,117,217);fill-rule:nonzero;stroke:rgb(1,117,217);stroke-width:5.19px;"/>
        </g>
        <g transform="matrix(1.16355,0,0,1.16355,-157.01,-213.481)">
            <path d="M1455.62,709.67L1455.62,696.31L1460.9,696.31L1460.9,707.66C1463.61,709.897 1466.64,711.702 1469.9,713.01C1473.92,714.569 1478.21,715.32 1482.52,715.22C1485.43,715.219 1488.32,714.77 1491.09,713.89C1493.75,713.075 1496.25,711.795 1498.47,710.11C1500.57,708.489 1502.32,706.445 1503.58,704.11C1504.9,701.627 1505.56,698.85 1505.51,696.04C1505.63,692.895 1504.95,689.771 1503.51,686.97C1502.24,684.675 1500.47,682.694 1498.33,681.17C1496.09,679.6 1493.63,678.37 1491.03,677.52C1488.28,676.6 1485.47,675.73 1482.59,674.94C1479.71,674.15 1476.88,673.28 1474.09,672.35C1471.41,671.483 1468.87,670.255 1466.52,668.7C1464.28,667.217 1462.4,665.256 1461.01,662.96C1459.48,660.249 1458.65,657.194 1458.61,654.08C1458.45,651.245 1458.81,648.405 1459.67,645.7C1460.54,642.913 1461.98,640.337 1463.9,638.14C1465.99,635.797 1468.56,633.928 1471.43,632.66C1474.97,631.139 1478.81,630.409 1482.66,630.52C1484.15,630.52 1485.78,630.6 1487.54,630.77C1489.36,630.948 1491.17,631.242 1492.96,631.65C1494.87,632.09 1496.73,632.723 1498.51,633.54C1500.4,634.405 1502.18,635.507 1503.79,636.82L1503.79,650.43L1498.51,650.43L1498.51,639.36C1496.44,638.196 1494.22,637.305 1491.92,636.71C1488.81,635.904 1485.61,635.524 1482.4,635.58C1479.62,635.518 1476.86,636.011 1474.28,637.03C1472.1,637.905 1470.12,639.235 1468.49,640.93C1466.95,642.553 1465.77,644.486 1465.03,646.6C1464.28,648.725 1463.89,650.965 1463.9,653.22C1463.79,655.843 1464.49,658.437 1465.9,660.65C1467.27,662.62 1469.06,664.257 1471.15,665.44C1473.5,666.776 1476,667.833 1478.59,668.59C1481.38,669.43 1484.23,670.27 1487.16,671.11C1490.06,671.96 1492.92,672.961 1495.72,674.11C1498.43,675.2 1500.96,676.686 1503.23,678.52C1505.5,680.397 1507.33,682.74 1508.61,685.39C1510.09,688.676 1510.84,692.246 1510.8,695.85C1510.85,699.332 1510.11,702.78 1508.62,705.93C1507.21,708.905 1505.19,711.547 1502.68,713.68C1500.06,715.885 1497.03,717.556 1493.76,718.6C1490.26,719.742 1486.61,720.316 1482.93,720.3C1479.73,720.327 1476.54,719.991 1473.42,719.3C1470.72,718.701 1468.09,717.834 1465.56,716.71C1463.43,715.788 1461.42,714.627 1459.56,713.25C1458.13,712.189 1456.81,710.99 1455.62,709.67Z" style="fill:rgb(0,117,217);fill-rule:nonzero;stroke:rgb(1,117,217);stroke-width:5.19px;"/>
        </g>
        <g transform="matrix(1.16355,0,0,1.16355,-157.01,-213.481)">
            <path d="M1518.76,695.56C1518.74,692.261 1519.42,688.994 1520.76,685.98C1522.08,683.022 1523.97,680.35 1526.31,678.11C1528.69,675.856 1531.47,674.06 1534.5,672.81C1537.71,671.495 1541.14,670.832 1544.61,670.86C1548.1,670.836 1551.55,671.499 1554.78,672.81C1557.85,674.056 1560.67,675.852 1563.1,678.11C1565.48,680.333 1567.39,683.009 1568.72,685.98C1571.44,692.095 1571.44,699.085 1568.72,705.2C1567.38,708.133 1565.47,710.769 1563.1,712.95C1560.66,715.173 1557.84,716.944 1554.78,718.18C1551.55,719.509 1548.1,720.188 1544.61,720.18C1541.14,720.192 1537.7,719.512 1534.5,718.18C1531.48,716.94 1528.7,715.169 1526.31,712.95C1523.97,710.752 1522.09,708.12 1520.76,705.2C1519.4,702.169 1518.72,698.88 1518.76,695.56ZM1524.04,695.56C1524.02,698.181 1524.57,700.775 1525.63,703.17C1526.67,705.505 1528.15,707.615 1530,709.38C1533.89,713.082 1539.08,715.13 1544.45,715.09C1547.19,715.101 1549.91,714.585 1552.45,713.57C1554.88,712.606 1557.11,711.183 1559.01,709.38C1560.86,707.615 1562.34,705.505 1563.38,703.17C1565.5,698.321 1565.5,692.799 1563.38,687.95C1562.34,685.613 1560.86,683.5 1559.01,681.73C1557.1,679.924 1554.88,678.487 1552.45,677.49C1549.92,676.428 1547.2,675.888 1544.45,675.9C1541.7,675.873 1538.98,676.414 1536.45,677.49C1534.05,678.499 1531.84,679.936 1529.95,681.73C1528.1,683.5 1526.62,685.613 1525.58,687.95C1524.52,690.345 1523.98,692.94 1524,695.56L1524.04,695.56Z" style="fill:rgb(0,117,217);fill-rule:nonzero;stroke:rgb(1,117,217);stroke-width:5.19px;"/>
        </g>
        <g transform="matrix(1.16355,0,0,1.16355,-157.01,-213.481)">
            <path d="M1580.05,672L1595.11,672L1595.11,704.86C1595.27,707.52 1596.39,710.034 1598.25,711.94C1600.17,713.94 1603,715.037 1606.74,715.23C1609.43,715.24 1612.1,714.79 1614.64,713.9C1617.01,713.078 1619.23,711.861 1621.19,710.3C1623.04,708.809 1624.56,706.958 1625.67,704.86C1626.8,702.701 1627.37,700.295 1627.34,697.86L1627.34,677L1617.57,677L1617.57,672L1632.57,672L1632.57,714.72L1642,714.72L1642,719.26L1628,719.26L1627.74,712.71L1627.74,707C1625.96,711.03 1622.96,714.4 1619.16,716.63C1615.17,719.041 1610.58,720.288 1605.92,720.23C1601.04,720.23 1597.18,718.927 1594.35,716.32C1591.49,713.692 1589.86,709.991 1589.83,706.11L1589.83,677L1580.05,677L1580.05,672Z" style="fill:rgb(0,117,217);fill-rule:nonzero;stroke:rgb(1,117,217);stroke-width:5.19px;"/>
        </g>
        <g transform="matrix(1.16355,0,0,1.16355,-157.01,-213.481)">
            <path d="M1688.76,714.21L1699.07,714.21L1699.07,686.39C1698.9,683.729 1697.78,681.215 1695.92,679.31C1694.01,677.31 1691.18,676.217 1687.43,676.03C1682.22,676.027 1677.16,677.763 1673.05,680.96C1671.17,682.431 1669.63,684.282 1668.51,686.39C1667.38,688.547 1666.8,690.954 1666.84,693.39L1666.84,714.25L1676.61,714.25L1676.61,719.25L1651.25,719.25L1651.25,714.25L1661.55,714.25L1661.55,677L1652,677L1652,672L1665.87,672L1666.01,676.41C1666.09,677.84 1666.18,679.15 1666.27,680.32C1666.36,681.49 1666.4,682.8 1666.4,684.23C1668.2,680.238 1671.19,676.894 1674.95,674.65C1678.95,672.193 1683.57,670.927 1688.27,671C1693.13,671 1696.97,672.3 1699.8,674.9C1702.64,677.538 1704.27,681.233 1704.31,685.11L1704.31,714.22L1714,714.22L1714,719.22L1688.77,719.22L1688.76,714.21Z" style="fill:rgb(0,117,217);fill-rule:nonzero;stroke:rgb(1,117,217);stroke-width:5.19px;"/>
        </g>
        <g transform="matrix(1.16355,0,0,1.16355,-157.01,-213.481)">
            <path d="M1770,714.21C1770,713.21 1770,712.21 1770.07,711.21C1770.14,710.21 1770.13,709.3 1770.13,708.37C1769.43,709.942 1768.48,711.391 1767.31,712.66C1765.98,714.144 1764.42,715.419 1762.71,716.44C1760.78,717.59 1758.7,718.478 1756.54,719.08C1754.13,719.761 1751.63,720.097 1749.12,720.08C1745.65,720.088 1742.21,719.408 1739,718.08C1735.97,716.852 1733.18,715.08 1730.79,712.85C1728.46,710.651 1726.59,708.018 1725.27,705.1C1723.92,702.068 1723.24,698.78 1723.27,695.46C1723.25,692.18 1723.93,688.933 1725.27,685.94C1726.6,683.009 1728.47,680.358 1730.79,678.13C1735.73,673.448 1742.3,670.852 1749.11,670.89C1751.53,670.872 1753.94,671.208 1756.27,671.89C1758.41,672.527 1760.47,673.438 1762.38,674.6C1764.13,675.66 1765.72,676.956 1767.11,678.45C1768.34,679.777 1769.32,681.319 1770,683C1769.91,681.23 1769.82,679.47 1769.74,677.7L1769.47,672.41L1769.47,629.78L1760.23,629.78L1760.23,624.78L1775.29,624.78L1775.29,714.25L1785.06,714.25L1785.06,719.25L1770,719.25L1770,714.21ZM1728.52,695.62C1728.5,698.234 1729.04,700.823 1730.11,703.21C1731.14,705.524 1732.6,707.624 1734.4,709.4C1736.26,711.204 1738.46,712.622 1740.87,713.57C1743.45,714.601 1746.22,715.117 1749,715.09C1751.76,715.121 1754.5,714.605 1757.06,713.57C1759.46,712.6 1761.65,711.185 1763.53,709.4C1765.37,707.64 1766.85,705.537 1767.89,703.21C1768.95,700.822 1769.49,698.234 1769.47,695.62C1769.49,692.987 1768.95,690.381 1767.89,687.97C1766.87,685.619 1765.38,683.494 1763.53,681.72C1761.65,679.935 1759.46,678.518 1757.06,677.54C1754.5,676.503 1751.76,675.98 1749,676C1746.22,675.974 1743.46,676.487 1740.87,677.51C1738.46,678.466 1736.26,679.886 1734.4,681.69C1732.59,683.481 1731.13,685.602 1730.11,687.94C1729.05,690.359 1728.5,692.977 1728.52,695.62Z" style="fill:rgb(0,117,217);fill-rule:nonzero;stroke:rgb(1,117,217);stroke-width:5.19px;"/>
        </g>
    </g>
    <g id="THIS" transform="matrix(0.994303,0,0,0.994303,10.9373,2.36976)">
        <g transform="matrix(1.16355,0,0,1.16355,-157.01,-213.481)">
            <path d="M807.22,445.12L828.57,445.12L828.57,283.68L772.32,283.68L772.32,313.36L761.91,313.36L761.91,273.26L905.65,273.26L905.65,313.36L895.23,313.36L895.23,283.68L839,283.68L839,445.12L859.3,445.12L859.3,455.54L807.22,455.54L807.22,445.12Z" style="fill:rgb(144,0,189);fill-rule:nonzero;stroke:rgb(144,0,189);stroke-width:10.37px;stroke-linecap:square;"/>
        </g>
        <g transform="matrix(1.16355,0,0,1.16355,-157.01,-213.481)">
            <path d="M1098.34,273.26L1150.16,273.26L1150.16,283.68L1130.11,283.68L1130.11,445.12L1150.16,445.12L1150.16,455.54L1098.34,455.54L1098.34,445.12L1119.69,445.12L1119.69,368.83L1006.94,368.83L1006.94,445.12L1028.29,445.12L1028.29,455.54L976.21,455.54L976.21,445.12L996.52,445.12L996.52,283.68L976.21,283.68L976.21,273.26L1028.29,273.26L1028.29,283.68L1006.94,283.68L1006.94,358.41L1119.69,358.41L1119.69,283.68L1098.34,283.68L1098.34,273.26Z" style="fill:rgb(144,0,189);fill-rule:nonzero;stroke:rgb(144,0,189);stroke-width:10.37px;stroke-linecap:square;"/>
        </g>
        <g transform="matrix(1.16355,0,0,1.16355,-157.01,-213.481)">
            <path d="M1220.47,445.12L1240.78,445.12L1240.78,283.68L1220.47,283.68L1220.47,273.26L1272.55,273.26L1272.55,283.68L1251.19,283.68L1251.19,445.12L1272.55,445.12L1272.55,455.54L1220.47,455.54L1220.47,445.12Z" style="fill:rgb(144,0,189);fill-rule:nonzero;stroke:rgb(144,0,189);stroke-width:10.37px;stroke-linecap:square;"/>
        </g>
        <g transform="matrix(1.16355,0,0,1.16355,-157.01,-213.481)">
            <path d="M1343.37,435.75L1343.37,408.15L1353.79,408.15L1353.79,431.58C1359.11,436.186 1365.12,439.922 1371.6,442.65C1378.58,445.69 1386.88,447.21 1396.49,447.21C1402.23,447.21 1407.93,446.285 1413.38,444.47C1418.66,442.771 1423.59,440.124 1427.92,436.66C1432.1,433.281 1435.54,429.068 1438,424.29C1440.6,419.129 1441.91,413.409 1441.8,407.63C1441.8,399.99 1440.49,393.74 1437.87,388.88C1435.39,384.175 1431.91,380.077 1427.66,376.88C1423.27,373.648 1418.41,371.102 1413.26,369.33C1407.85,367.417 1402.3,365.637 1396.63,363.99C1390.96,362.343 1385.37,360.563 1379.87,358.65C1374.57,356.839 1369.54,354.298 1364.94,351.1C1360.5,347.988 1356.79,343.943 1354.07,339.25C1351.28,334.483 1349.71,328.363 1349.36,320.89C1349.03,315.042 1349.73,309.181 1351.45,303.58C1354.88,291.646 1363.34,281.78 1374.62,276.58C1380.7,273.633 1388.08,272.16 1396.76,272.16C1399.7,272.16 1402.91,272.333 1406.39,272.68C1409.99,273.048 1413.56,273.656 1417.07,274.5C1420.84,275.414 1424.51,276.725 1428,278.41C1431.75,280.208 1435.25,282.484 1438.42,285.18L1438.42,313.3L1428,313.3L1428,290.45C1423.94,288.043 1419.56,286.203 1415,284.98C1408.89,283.315 1402.57,282.524 1396.24,282.63C1390.76,282.509 1385.31,283.531 1380.24,285.63C1371.58,289.268 1364.92,296.496 1362,305.42C1360.52,309.824 1359.76,314.442 1359.77,319.09C1359.77,325.343 1361.08,330.463 1363.69,334.45C1366.35,338.486 1369.89,341.87 1374.04,344.35C1378.65,347.098 1383.57,349.284 1388.7,350.86C1394.2,352.6 1399.83,354.337 1405.59,356.07C1411.33,357.791 1416.97,359.834 1422.48,362.19C1427.85,364.45 1432.84,367.523 1437.28,371.3C1441.79,375.222 1445.4,380.06 1447.89,385.49C1450.56,391.223 1452,398.427 1452.21,407.1C1452.31,414.277 1450.84,421.389 1447.91,427.94C1445.16,434.031 1441.17,439.481 1436.19,443.94C1431.07,448.469 1425.1,451.925 1418.62,454.1C1411.75,456.456 1404.53,457.643 1397.27,457.61C1390.96,457.664 1384.66,456.966 1378.52,455.53C1373.19,454.278 1367.99,452.489 1363.02,450.19C1358.81,448.257 1354.84,445.855 1351.17,443.03C1348.34,440.866 1345.72,438.428 1343.37,435.75Z" style="fill:rgb(144,0,189);fill-rule:nonzero;stroke:rgb(144,0,189);stroke-width:10.37px;stroke-linecap:square;"/>
        </g>
    </g>
    <g transform="matrix(1.15692,0,0,1.15692,-145.178,-209.896)">
        <path d="M721.774,549.454L721.774,833C721.774,838.218 717.538,842.454 712.32,842.454C707.102,842.454 702.866,838.218 702.866,833L702.866,766.454L484.014,766.454L484.014,819.68C502.506,824.002 516.454,840.73 516.454,860.46C516.454,860.469 516.454,860.477 516.454,860.486C516.454,860.763 516.441,861.038 516.413,861.31C515.962,883.9 497.241,902.344 474.55,902.344C451.579,902.344 432.676,883.441 432.676,860.47C432.676,840.742 446.618,824.015 465.106,819.685L465.106,757C465.106,751.779 469.339,747.546 474.56,747.546L702.866,747.546L702.866,694.604L290.954,694.604L290.954,770.106L332.318,770.106C336.652,751.628 353.372,737.696 373.09,737.696C396.056,737.696 414.954,756.594 414.954,779.56C414.954,802.526 396.056,821.424 373.09,821.424C353.372,821.424 336.652,807.492 332.318,789.014L281.5,789.014C276.279,789.014 272.046,784.781 272.046,779.56L272.046,685.15C272.046,679.929 276.279,675.696 281.5,675.696L702.866,675.696L702.866,618.454L377.3,618.454C372.079,618.454 367.846,614.221 367.846,609L367.846,548.044L208.424,548.044C204.631,567.219 187.567,581.864 167.35,581.864C144.384,581.864 125.486,562.966 125.486,540C125.486,517.034 144.384,498.136 167.35,498.136C186.563,498.136 202.929,511.363 207.762,529.136L377.3,529.136C382.521,529.136 386.754,533.369 386.754,538.59L386.754,599.546L702.866,599.546L702.866,474.764L600.974,474.764L600.974,538.59C600.974,543.811 596.741,548.044 591.52,548.044L425.23,548.044C420.009,548.044 415.776,543.811 415.776,538.59L415.776,474.764L312.664,474.764C308.871,493.939 291.807,508.584 271.59,508.584C248.624,508.584 229.726,489.686 229.726,466.72C229.726,443.754 248.624,424.856 271.59,424.856C290.803,424.856 307.169,438.083 312.002,455.856L425.23,455.856C430.451,455.856 434.684,460.089 434.684,465.31L434.684,529.136L582.066,529.136L582.066,465.31C582.066,460.089 586.299,455.856 591.52,455.856L702.866,455.856L702.866,404.304L426.64,404.304C421.467,404.304 417.255,400.147 417.187,394.974L415.9,297.204L365.593,297.204C360.761,314.976 344.394,328.204 325.18,328.204C302.214,328.204 283.316,309.306 283.316,286.34C283.316,263.374 302.214,244.476 325.18,244.476L325.18,253.93L325.18,244.476C345.397,244.476 362.461,259.121 366.254,278.296L425.23,278.296C430.403,278.296 434.615,282.453 434.683,287.626L435.97,385.396L702.866,385.396L702.866,328.214L490.06,328.214C484.839,328.214 480.606,323.981 480.606,318.76L480.606,262.594C461.431,258.801 446.786,241.737 446.786,221.52C446.786,198.554 465.684,179.656 488.65,179.656C511.616,179.656 530.514,198.554 530.514,221.52C530.514,240.733 517.287,257.099 499.514,261.932L499.514,309.306L702.866,309.306L702.866,244.45C702.866,239.232 707.102,234.996 712.32,234.996C717.538,234.996 721.774,239.232 721.774,244.45L721.774,530.546L1476.74,530.546C1480.22,530.546 1483.42,532.461 1485.07,535.53L1485.68,536.662L1506.09,503.053C1507.97,499.956 1511.45,498.207 1515.06,498.548C1518.67,498.89 1521.76,501.261 1523.03,504.655L1541.7,554.718L1563.04,475.336C1564.18,471.111 1568.06,468.217 1572.44,468.34C1576.81,468.463 1580.53,471.571 1581.42,475.854L1600.67,567.821L1620.88,460.215C1621.71,455.776 1625.57,452.547 1630.09,452.507C1634.6,452.466 1638.52,455.625 1639.43,460.048L1660.24,560.825L1679.02,488.873C1680.07,484.868 1683.6,482.008 1687.73,481.816C1691.87,481.624 1695.64,484.145 1697.06,488.036L1719.3,549.336L1737.31,519.432C1739.07,516.514 1742.26,514.767 1745.67,514.86C1749.07,514.953 1752.16,516.871 1753.76,519.88L1759.4,530.502L1775,530.546C1780.21,530.561 1784.44,534.809 1784.42,540.027C1784.41,545.244 1780.16,549.468 1774.94,549.454L1753.67,549.394C1750.18,549.384 1746.98,547.453 1745.35,544.37L1744.89,543.5L1725.27,576.068C1723.39,579.19 1719.88,580.952 1716.25,580.599C1712.63,580.246 1709.53,577.84 1708.28,574.414L1689.64,523.044L1668.32,604.757C1667.21,609.008 1663.32,611.934 1658.93,611.821C1654.54,611.707 1650.8,608.584 1649.91,604.282L1630.61,510.831L1610.46,618.115C1609.63,622.549 1605.78,625.777 1601.27,625.823C1596.76,625.87 1592.84,622.722 1591.92,618.306L1571.03,518.473L1552.3,588.144C1551.23,592.114 1547.72,594.939 1543.62,595.133C1539.51,595.327 1535.75,592.846 1534.31,588.995L1512.13,529.534L1493.25,560.617C1491.49,563.517 1488.31,565.251 1484.92,565.16C1481.53,565.07 1478.44,563.169 1476.84,560.18L1471.08,549.454L721.774,549.454ZM497.537,859.839C497.204,847.527 486.976,837.504 474.59,837.504L474.55,837.504C461.951,837.504 451.584,847.871 451.584,860.47C451.584,873.069 461.951,883.436 474.55,883.436C487.149,883.436 497.516,873.069 497.516,860.47C497.516,860.468 497.516,860.465 497.516,860.463L497.537,859.839ZM396.046,779.56C396.046,792.153 385.683,802.516 373.09,802.516C360.497,802.516 350.134,792.153 350.134,779.56C350.134,766.967 360.497,756.604 373.09,756.604C385.683,756.604 396.046,766.967 396.046,779.56ZM190.306,540C190.306,552.593 179.943,562.956 167.35,562.956C154.757,562.956 144.394,552.593 144.394,540C144.394,527.407 154.757,517.044 167.35,517.044C179.943,517.044 190.306,527.407 190.306,540ZM294.546,466.72C294.546,479.313 284.183,489.676 271.59,489.676C258.997,489.676 248.634,479.313 248.634,466.72C248.634,454.127 258.997,443.764 271.59,443.764C284.183,443.764 294.546,454.127 294.546,466.72ZM348.136,286.347C348.132,298.938 337.771,309.296 325.18,309.296C312.587,309.296 302.224,298.933 302.224,286.34C302.224,273.747 312.587,263.384 325.18,263.384L325.18,253.93C325.18,253.93 325.18,263.384 325.18,263.384C337.773,263.384 348.136,273.747 348.136,286.34C348.136,286.342 348.136,286.345 348.136,286.347ZM511.606,221.52C511.606,234.113 501.243,244.476 488.65,244.476C476.057,244.476 465.694,234.113 465.694,221.52C465.694,208.927 476.057,198.564 488.65,198.564C501.243,198.564 511.606,208.927 511.606,221.52Z" style="fill:url(#_Linear1);"/>
    </g>
    <defs>
        <linearGradient id="_Linear1" x1="0" y1="0" x2="1" y2="0" gradientUnits="userSpaceOnUse" gradientTransform="matrix(-0.77,-708.76,708.76,-0.77,955.42,894.87)"><stop offset="0" style="stop-color:rgb(0,177,217);stop-opacity:1"/><stop offset="0.2" style="stop-color:rgb(41,139,215);stop-opacity:1"/><stop offset="0.75" style="stop-color:rgb(146,40,210);stop-opacity:1"/><stop offset="1" style="stop-color:rgb(188,0,208);stop-opacity:1"/></linearGradient>
    </defs>
</svg>
