<svg version="1.1" viewBox="0.0 0.0 960.0 720.0" fill="none" stroke="none" stroke-linecap="square" stroke-miterlimit="10" xmlns:xlink="http://www.w3.org/1999/xlink" xmlns="http://www.w3.org/2000/svg"><clipPath id="p.0"><path d="m0 0l960.0 0l0 720.0l-960.0 0l0 -720.0z" clip-rule="nonzero"/></clipPath><g clip-path="url(#p.0)"><path fill="#000000" fill-opacity="0.0" d="m0 0l960.0 0l0 720.0l-960.0 0z" fill-rule="evenodd"/><path fill="#000000" fill-opacity="0.0" d="m53.6168 0l53.6168 0l0 52.658794l-53.6168 0z" fill-rule="evenodd"/><path stroke="#000000" stroke-width="1.0" stroke-linejoin="round" stroke-linecap="butt" d="m53.6168 0l53.6168 0l0 52.658794l-53.6168 0z" fill-rule="evenodd"/><path fill="#cc0000" d="m53.6168 52.658794l53.6168 0l0 52.658794l-53.6168 0z" fill-rule="evenodd"/><path stroke="#000000" stroke-width="1.0" stroke-linejoin="round" stroke-linecap="butt" d="m53.6168 52.658794l53.6168 0l0 52.658794l-53.6168 0z" fill-rule="evenodd"/><path fill="#ea9999" d="m107.2336 52.658794l53.61679 0l0 52.658794l-53.61679 0z" fill-rule="evenodd"/><path stroke="#000000" stroke-width="1.0" stroke-linejoin="round" stroke-linecap="butt" d="m107.2336 52.658794l53.61679 0l0 52.658794l-53.61679 0z" fill-rule="evenodd"/><path fill="#ffffff" d="m107.2336 0l53.61679 0l0 52.658794l-53.61679 0z" fill-rule="evenodd"/><path stroke="#000000" stroke-width="1.0" stroke-linejoin="round" stroke-linecap="butt" d="m107.2336 0l53.61679 0l0 52.658794l-53.61679 0z" fill-rule="evenodd"/><path fill="#ffffff" d="m0 0l53.6168 0l0 52.658794l-53.6168 0z" fill-rule="evenodd"/><path stroke="#000000" stroke-width="1.0" stroke-linejoin="round" stroke-linecap="butt" d="m0 0l53.6168 0l0 52.658794l-53.6168 0z" fill-rule="evenodd"/><path fill="#000000" fill-opacity="0.0" d="m0 52.658794l53.6168 0l0 52.658794l-53.6168 0z" fill-rule="evenodd"/><path stroke="#000000" stroke-width="1.0" stroke-linejoin="round" stroke-linecap="butt" d="m0 52.658794l53.6168 0l0 52.658794l-53.6168 0z" fill-rule="evenodd"/><path fill="#ffffff" d="m0 105.31759l53.6168 0l0 52.65879l-53.6168 0z" fill-rule="evenodd"/><path stroke="#000000" stroke-width="1.0" stroke-linejoin="round" stroke-linecap="butt" d="m0 105.31759l53.6168 0l0 52.65879l-53.6168 0z" fill-rule="evenodd"/><path fill="#000000" fill-opacity="0.0" d="m53.6168 105.31759l53.6168 0l0 52.65879l-53.6168 0z" fill-rule="evenodd"/><path stroke="#000000" stroke-width="1.0" stroke-linejoin="round" stroke-linecap="butt" d="m53.6168 105.31759l53.6168 0l0 52.65879l-53.6168 0z" fill-rule="evenodd"/><path fill="#ffffff" d="m107.2336 105.31759l53.61679 0l0 52.65879l-53.61679 0z" fill-rule="evenodd"/><path stroke="#000000" stroke-width="1.0" stroke-linejoin="round" stroke-linecap="butt" d="m107.2336 105.31759l53.61679 0l0 52.65879l-53.61679 0z" fill-rule="evenodd"/><path fill="#000000" fill-opacity="0.0" d="m241.95538 0l53.61679 0l0 52.658794l-53.61679 0z" fill-rule="evenodd"/><path stroke="#000000" stroke-width="1.0" stroke-linejoin="round" stroke-linecap="butt" d="m241.95538 0l53.61679 0l0 52.658794l-53.61679 0z" fill-rule="evenodd"/><path fill="#cc0000" d="m241.95538 52.658794l53.61679 0l0 52.658794l-53.61679 0z" fill-rule="evenodd"/><path stroke="#000000" stroke-width="1.0" stroke-linejoin="round" stroke-linecap="butt" d="m241.95538 52.658794l53.61679 0l0 52.658794l-53.61679 0z" fill-rule="evenodd"/><path fill="#000000" fill-opacity="0.0" d="m295.57217 52.658794l53.61679 0l0 52.658794l-53.61679 0z" fill-rule="evenodd"/><path stroke="#000000" stroke-width="1.0" stroke-linejoin="round" stroke-linecap="butt" d="m295.57217 52.658794l53.61679 0l0 52.658794l-53.61679 0z" fill-rule="evenodd"/><path fill="#ea9999" d="m295.57217 0l53.61679 0l0 52.658794l-53.61679 0z" fill-rule="evenodd"/><path stroke="#000000" stroke-width="1.0" stroke-linejoin="round" stroke-linecap="butt" d="m295.57217 0l53.61679 0l0 52.658794l-53.61679 0z" fill-rule="evenodd"/><path fill="#ffffff" d="m188.33858 0l53.616806 0l0 52.658794l-53.616806 0z" fill-rule="evenodd"/><path stroke="#000000" stroke-width="1.0" stroke-linejoin="round" stroke-linecap="butt" d="m188.33858 0l53.616806 0l0 52.658794l-53.616806 0z" fill-rule="evenodd"/><path fill="#000000" fill-opacity="0.0" d="m188.33858 52.658794l53.616806 0l0 52.658794l-53.616806 0z" fill-rule="evenodd"/><path stroke="#000000" stroke-width="1.0" stroke-linejoin="round" stroke-linecap="butt" d="m188.33858 52.658794l53.616806 0l0 52.658794l-53.616806 0z" fill-rule="evenodd"/><path fill="#ffffff" d="m188.33858 105.31759l53.616806 0l0 52.65879l-53.616806 0z" fill-rule="evenodd"/><path stroke="#000000" stroke-width="1.0" stroke-linejoin="round" stroke-linecap="butt" d="m188.33858 105.31759l53.616806 0l0 52.65879l-53.616806 0z" fill-rule="evenodd"/><path fill="#000000" fill-opacity="0.0" d="m241.95538 105.31759l53.61679 0l0 52.65879l-53.61679 0z" fill-rule="evenodd"/><path stroke="#000000" stroke-width="1.0" stroke-linejoin="round" stroke-linecap="butt" d="m241.95538 105.31759l53.61679 0l0 52.65879l-53.61679 0z" fill-rule="evenodd"/><path fill="#ffffff" d="m295.57217 105.31759l53.61679 0l0 52.65879l-53.61679 0z" fill-rule="evenodd"/><path stroke="#000000" stroke-width="1.0" stroke-linejoin="round" stroke-linecap="butt" d="m295.57217 105.31759l53.61679 0l0 52.65879l-53.61679 0z" fill-rule="evenodd"/><path fill="#000000" fill-opacity="0.0" d="m244.9685 78.98819l47.590546 0" fill-rule="evenodd"/><path stroke="#000000" stroke-width="3.0" stroke-linejoin="round" stroke-linecap="butt" d="m244.9685 78.98819l29.590546 0" fill-rule="evenodd"/><path fill="#000000" stroke="#000000" stroke-width="3.0" stroke-linecap="butt" d="m274.55905 83.94339l13.614288 -4.9552l-13.614288 -4.9552z" fill-rule="evenodd"/><path fill="#000000" fill-opacity="0.0" d="m323.18634 98.31102l-0.12597656 -38.645664" fill-rule="evenodd"/><path stroke="#000000" stroke-width="3.0" stroke-linejoin="round" stroke-linecap="butt" d="m323.18634 98.31102l-0.06729126 -20.64576" fill-rule="evenodd"/><path fill="#000000" stroke="#000000" stroke-width="3.0" stroke-linecap="butt" d="m328.07422 77.6491l-4.999542 -13.598061l-4.910797 13.630371z" fill-rule="evenodd"/><path fill="#000000" fill-opacity="0.0" d="m56.62992 79.46719l47.590553 0" fill-rule="evenodd"/><path stroke="#000000" stroke-width="3.0" stroke-linejoin="round" stroke-linecap="butt" d="m56.62992 79.46719l29.590553 0" fill-rule="evenodd"/><path fill="#000000" stroke="#000000" stroke-width="3.0" stroke-linecap="butt" d="m86.220474 84.422386l13.614288 -4.9551926l-13.614288 -4.9552z" fill-rule="evenodd"/></g></svg>