<svg version="1.1" viewBox="0.0 0.0 960.0 720.0" fill="none" stroke="none" stroke-linecap="square" stroke-miterlimit="10" xmlns:xlink="http://www.w3.org/1999/xlink" xmlns="http://www.w3.org/2000/svg"><clipPath id="p.0"><path d="m0 0l960.0 0l0 720.0l-960.0 0l0 -720.0z" clip-rule="nonzero"/></clipPath><g clip-path="url(#p.0)"><path fill="#000000" fill-opacity="0.0" d="m0 0l960.0 0l0 720.0l-960.0 0z" fill-rule="evenodd"/><path fill="#000000" fill-opacity="0.0" d="m95.74541 46.91601l53.61679 0l0 52.658794l-53.61679 0z" fill-rule="evenodd"/><path stroke="#000000" stroke-width="1.0" stroke-linejoin="round" stroke-linecap="butt" d="m95.74541 46.91601l53.61679 0l0 52.658794l-53.61679 0z" fill-rule="evenodd"/><path fill="#cc0000" d="m95.74541 99.57481l53.61679 0l0 52.65879l-53.61679 0z" fill-rule="evenodd"/><path stroke="#000000" stroke-width="1.0" stroke-linejoin="round" stroke-linecap="butt" d="m95.74541 99.57481l53.61679 0l0 52.65879l-53.61679 0z" fill-rule="evenodd"/><path fill="#ea9999" d="m149.3622 99.57481l53.616806 0l0 52.65879l-53.616806 0z" fill-rule="evenodd"/><path stroke="#000000" stroke-width="1.0" stroke-linejoin="round" stroke-linecap="butt" d="m149.3622 99.57481l53.616806 0l0 52.65879l-53.616806 0z" fill-rule="evenodd"/><path fill="#ffffff" d="m149.3622 46.91601l53.616806 0l0 52.658794l-53.616806 0z" fill-rule="evenodd"/><path stroke="#000000" stroke-width="1.0" stroke-linejoin="round" stroke-linecap="butt" d="m149.3622 46.91601l53.616806 0l0 52.658794l-53.616806 0z" fill-rule="evenodd"/><path fill="#ffffff" d="m42.12861 46.91601l53.6168 0l0 52.658794l-53.6168 0z" fill-rule="evenodd"/><path stroke="#000000" stroke-width="1.0" stroke-linejoin="round" stroke-linecap="butt" d="m42.12861 46.91601l53.6168 0l0 52.658794l-53.6168 0z" fill-rule="evenodd"/><path fill="#000000" fill-opacity="0.0" d="m42.12861 99.57481l53.6168 0l0 52.65879l-53.6168 0z" fill-rule="evenodd"/><path stroke="#000000" stroke-width="1.0" stroke-linejoin="round" stroke-linecap="butt" d="m42.12861 99.57481l53.6168 0l0 52.65879l-53.6168 0z" fill-rule="evenodd"/><path fill="#ffffff" d="m42.12861 152.2336l53.6168 0l0 52.6588l-53.6168 0z" fill-rule="evenodd"/><path stroke="#000000" stroke-width="1.0" stroke-linejoin="round" stroke-linecap="butt" d="m42.12861 152.2336l53.6168 0l0 52.6588l-53.6168 0z" fill-rule="evenodd"/><path fill="#000000" fill-opacity="0.0" d="m95.74541 152.2336l53.61679 0l0 52.6588l-53.61679 0z" fill-rule="evenodd"/><path stroke="#000000" stroke-width="1.0" stroke-linejoin="round" stroke-linecap="butt" d="m95.74541 152.2336l53.61679 0l0 52.6588l-53.61679 0z" fill-rule="evenodd"/><path fill="#ffffff" d="m149.3622 152.2336l53.616806 0l0 52.6588l-53.616806 0z" fill-rule="evenodd"/><path stroke="#000000" stroke-width="1.0" stroke-linejoin="round" stroke-linecap="butt" d="m149.3622 152.2336l53.616806 0l0 52.6588l-53.616806 0z" fill-rule="evenodd"/><path fill="#000000" fill-opacity="0.0" d="m284.08398 46.91601l53.61679 0l0 52.658794l-53.61679 0z" fill-rule="evenodd"/><path stroke="#000000" stroke-width="1.0" stroke-linejoin="round" stroke-linecap="butt" d="m284.08398 46.91601l53.61679 0l0 52.658794l-53.61679 0z" fill-rule="evenodd"/><path fill="#cc0000" d="m284.08398 99.57481l53.61679 0l0 52.65879l-53.61679 0z" fill-rule="evenodd"/><path stroke="#000000" stroke-width="1.0" stroke-linejoin="round" stroke-linecap="butt" d="m284.08398 99.57481l53.61679 0l0 52.65879l-53.61679 0z" fill-rule="evenodd"/><path fill="#000000" fill-opacity="0.0" d="m337.70078 99.57481l53.61682 0l0 52.65879l-53.61682 0z" fill-rule="evenodd"/><path stroke="#000000" stroke-width="1.0" stroke-linejoin="round" stroke-linecap="butt" d="m337.70078 99.57481l53.61682 0l0 52.65879l-53.61682 0z" fill-rule="evenodd"/><path fill="#ea9999" d="m337.70078 46.91601l53.61682 0l0 52.658794l-53.61682 0z" fill-rule="evenodd"/><path stroke="#000000" stroke-width="1.0" stroke-linejoin="round" stroke-linecap="butt" d="m337.70078 46.91601l53.61682 0l0 52.658794l-53.61682 0z" fill-rule="evenodd"/><path fill="#ffffff" d="m230.4672 46.91601l53.61679 0l0 52.658794l-53.61679 0z" fill-rule="evenodd"/><path stroke="#000000" stroke-width="1.0" stroke-linejoin="round" stroke-linecap="butt" d="m230.4672 46.91601l53.61679 0l0 52.658794l-53.61679 0z" fill-rule="evenodd"/><path fill="#000000" fill-opacity="0.0" d="m230.4672 99.57481l53.61679 0l0 52.65879l-53.61679 0z" fill-rule="evenodd"/><path stroke="#000000" stroke-width="1.0" stroke-linejoin="round" stroke-linecap="butt" d="m230.4672 99.57481l53.61679 0l0 52.65879l-53.61679 0z" fill-rule="evenodd"/><path fill="#ffffff" d="m230.4672 152.2336l53.61679 0l0 52.6588l-53.61679 0z" fill-rule="evenodd"/><path stroke="#000000" stroke-width="1.0" stroke-linejoin="round" stroke-linecap="butt" d="m230.4672 152.2336l53.61679 0l0 52.6588l-53.61679 0z" fill-rule="evenodd"/><path fill="#000000" fill-opacity="0.0" d="m284.08398 152.2336l53.61679 0l0 52.6588l-53.61679 0z" fill-rule="evenodd"/><path stroke="#000000" stroke-width="1.0" stroke-linejoin="round" stroke-linecap="butt" d="m284.08398 152.2336l53.61679 0l0 52.6588l-53.61679 0z" fill-rule="evenodd"/><path fill="#ffffff" d="m337.70078 152.2336l53.61682 0l0 52.6588l-53.61682 0z" fill-rule="evenodd"/><path stroke="#000000" stroke-width="1.0" stroke-linejoin="round" stroke-linecap="butt" d="m337.70078 152.2336l53.61682 0l0 52.6588l-53.61682 0z" fill-rule="evenodd"/><path fill="#000000" fill-opacity="0.0" d="m287.0971 125.9042l47.590546 0" fill-rule="evenodd"/><path stroke="#000000" stroke-width="3.0" stroke-linejoin="round" stroke-linecap="butt" d="m287.0971 125.9042l29.590546 0" fill-rule="evenodd"/><path fill="#000000" stroke="#000000" stroke-width="3.0" stroke-linecap="butt" d="m316.68765 130.85939l13.614319 -4.9551926l-13.614319 -4.9551926z" fill-rule="evenodd"/><path fill="#000000" fill-opacity="0.0" d="m365.31497 145.22704l-0.12600708 -38.645668" fill-rule="evenodd"/><path stroke="#000000" stroke-width="3.0" stroke-linejoin="round" stroke-linecap="butt" d="m365.31497 145.22704l-0.06732178 -20.64576" fill-rule="evenodd"/><path fill="#000000" stroke="#000000" stroke-width="3.0" stroke-linecap="butt" d="m370.20282 124.56512l-4.999542 -13.598068l-4.910797 13.630371z" fill-rule="evenodd"/><path fill="#000000" fill-opacity="0.0" d="m98.75853 126.3832l47.590546 0" fill-rule="evenodd"/><path stroke="#000000" stroke-width="3.0" stroke-linejoin="round" stroke-linecap="butt" d="m98.75853 126.3832l29.590546 0" fill-rule="evenodd"/><path fill="#000000" stroke="#000000" stroke-width="3.0" stroke-linecap="butt" d="m128.34908 131.3384l13.614304 -4.9551926l-13.614304 -4.9552z" fill-rule="evenodd"/></g></svg>