<?xml version="1.0" encoding="UTF-8" standalone="no"?>
<!DOCTYPE svg PUBLIC "-//W3C//DTD SVG 1.1//EN" "http://www.w3.org/Graphics/SVG/1.1/DTD/svg11.dtd">
<svg width="100%" height="100%" viewBox="0 0 512 232" version="1.1" xmlns="http://www.w3.org/2000/svg" xmlns:xlink="http://www.w3.org/1999/xlink" xml:space="preserve" xmlns:serif="http://www.serif.com/" style="fill-rule:evenodd;clip-rule:evenodd;stroke-linejoin:round;stroke-miterlimit:10;">
    <g transform="matrix(1,0,0,1,0.333333,0)">
        <clipPath id="_clip1">
            <rect x="0" y="0" width="960" height="720"/>
        </clipPath>
        <g clip-path="url(#_clip1)">
            <g transform="matrix(1.46625,0,0,1.46857,-0.333333,0)">
                <rect x="53.617" y="0" width="53.617" height="52.659" style="fill-opacity:0;"/>
            </g>
            <g transform="matrix(1.46625,0,0,1.46857,-0.333333,0)">
                <rect x="53.617" y="0" width="53.617" height="52.659" style="fill:none;stroke:black;stroke-width:1px;"/>
            </g>
            <g transform="matrix(1.46625,0,0,1.46857,-0.333333,0)">
                <rect x="53.617" y="52.659" width="53.617" height="52.659" style="fill:rgb(204,0,0);"/>
            </g>
            <g transform="matrix(1.46625,0,0,1.46857,-0.333333,0)">
                <rect x="53.617" y="52.659" width="53.617" height="52.659" style="fill:none;stroke:black;stroke-width:1px;"/>
            </g>
            <g transform="matrix(1.46625,0,0,1.46857,-0.333333,0)">
                <rect x="107.234" y="52.659" width="53.617" height="52.659" style="fill:rgb(234,153,153);"/>
            </g>
            <g transform="matrix(1.46625,0,0,1.46857,-0.333333,0)">
                <rect x="107.234" y="52.659" width="53.617" height="52.659" style="fill:none;stroke:black;stroke-width:1px;"/>
            </g>
            <g transform="matrix(1.46625,0,0,1.46857,-0.333333,0)">
                <rect x="107.234" y="0" width="53.617" height="52.659" style="fill:white;"/>
            </g>
            <g transform="matrix(1.46625,0,0,1.46857,-0.333333,0)">
                <rect x="107.234" y="0" width="53.617" height="52.659" style="fill:none;stroke:black;stroke-width:1px;"/>
            </g>
            <g transform="matrix(1.46625,0,0,1.46857,-0.333333,0)">
                <rect x="0" y="0" width="53.617" height="52.659" style="fill:white;"/>
            </g>
            <g transform="matrix(1.46625,0,0,1.46857,-0.333333,0)">
                <rect x="0" y="0" width="53.617" height="52.659" style="fill:none;stroke:black;stroke-width:1px;"/>
            </g>
            <g transform="matrix(1.46625,0,0,1.46857,-0.333333,0)">
                <rect x="0" y="52.659" width="53.617" height="52.659" style="fill-opacity:0;"/>
            </g>
            <g transform="matrix(1.46625,0,0,1.46857,-0.333333,0)">
                <rect x="0" y="52.659" width="53.617" height="52.659" style="fill:none;stroke:black;stroke-width:1px;"/>
            </g>
            <g transform="matrix(1.46625,0,0,1.46857,-0.333333,0)">
                <rect x="0" y="105.318" width="53.617" height="52.659" style="fill:white;"/>
            </g>
            <g transform="matrix(1.46625,0,0,1.46857,-0.333333,0)">
                <rect x="0" y="105.318" width="53.617" height="52.659" style="fill:none;stroke:black;stroke-width:1px;"/>
            </g>
            <g transform="matrix(1.46625,0,0,1.46857,-0.333333,0)">
                <rect x="53.617" y="105.318" width="53.617" height="52.659" style="fill-opacity:0;"/>
            </g>
            <g transform="matrix(1.46625,0,0,1.46857,-0.333333,0)">
                <rect x="53.617" y="105.318" width="53.617" height="52.659" style="fill:none;stroke:black;stroke-width:1px;"/>
            </g>
            <g transform="matrix(1.46625,0,0,1.46857,-0.333333,0)">
                <rect x="107.234" y="105.318" width="53.617" height="52.659" style="fill:white;"/>
            </g>
            <g transform="matrix(1.46625,0,0,1.46857,-0.333333,0)">
                <rect x="107.234" y="105.318" width="53.617" height="52.659" style="fill:none;stroke:black;stroke-width:1px;"/>
            </g>
            <g transform="matrix(1.46625,0,0,1.46857,-0.333333,0)">
                <rect x="241.955" y="0" width="53.617" height="52.659" style="fill-opacity:0;"/>
            </g>
            <g transform="matrix(1.46625,0,0,1.46857,-0.333333,0)">
                <rect x="241.955" y="0" width="53.617" height="52.659" style="fill:none;stroke:black;stroke-width:1px;"/>
            </g>
            <g transform="matrix(1.46625,0,0,1.46857,-0.333333,0)">
                <rect x="241.955" y="52.659" width="53.617" height="52.659" style="fill:rgb(204,0,0);"/>
            </g>
            <g transform="matrix(1.46625,0,0,1.46857,-0.333333,0)">
                <rect x="241.955" y="52.659" width="53.617" height="52.659" style="fill:none;stroke:black;stroke-width:1px;"/>
            </g>
            <g transform="matrix(1.46625,0,0,1.46857,-0.333333,0)">
                <rect x="295.572" y="52.659" width="53.617" height="52.659" style="fill-opacity:0;"/>
            </g>
            <g transform="matrix(1.46625,0,0,1.46857,-0.333333,0)">
                <rect x="295.572" y="52.659" width="53.617" height="52.659" style="fill:none;stroke:black;stroke-width:1px;"/>
            </g>
            <g transform="matrix(1.46625,0,0,1.46857,-0.333333,0)">
                <rect x="295.572" y="0" width="53.617" height="52.659" style="fill:rgb(234,153,153);"/>
            </g>
            <g transform="matrix(1.46625,0,0,1.46857,-0.333333,0)">
                <rect x="295.572" y="0" width="53.617" height="52.659" style="fill:none;stroke:black;stroke-width:1px;"/>
            </g>
            <g transform="matrix(1.46625,0,0,1.46857,-0.333333,0)">
                <rect x="188.339" y="0" width="53.617" height="52.659" style="fill:white;"/>
            </g>
            <g transform="matrix(1.46625,0,0,1.46857,-0.333333,0)">
                <rect x="188.339" y="0" width="53.617" height="52.659" style="fill:none;stroke:black;stroke-width:1px;"/>
            </g>
            <g transform="matrix(1.46625,0,0,1.46857,-0.333333,0)">
                <rect x="188.339" y="52.659" width="53.617" height="52.659" style="fill-opacity:0;"/>
            </g>
            <g transform="matrix(1.46625,0,0,1.46857,-0.333333,0)">
                <rect x="188.339" y="52.659" width="53.617" height="52.659" style="fill:none;stroke:black;stroke-width:1px;"/>
            </g>
            <g transform="matrix(1.46625,0,0,1.46857,-0.333333,0)">
                <rect x="188.339" y="105.318" width="53.617" height="52.659" style="fill:white;"/>
            </g>
            <g transform="matrix(1.46625,0,0,1.46857,-0.333333,0)">
                <rect x="188.339" y="105.318" width="53.617" height="52.659" style="fill:none;stroke:black;stroke-width:1px;"/>
            </g>
            <g transform="matrix(1.46625,0,0,1.46857,-0.333333,0)">
                <rect x="241.955" y="105.318" width="53.617" height="52.659" style="fill-opacity:0;"/>
            </g>
            <g transform="matrix(1.46625,0,0,1.46857,-0.333333,0)">
                <rect x="241.955" y="105.318" width="53.617" height="52.659" style="fill:none;stroke:black;stroke-width:1px;"/>
            </g>
            <g transform="matrix(1.46625,0,0,1.46857,-0.333333,0)">
                <rect x="295.572" y="105.318" width="53.617" height="52.659" style="fill:white;"/>
            </g>
            <g transform="matrix(1.46625,0,0,1.46857,-0.333333,0)">
                <rect x="295.572" y="105.318" width="53.617" height="52.659" style="fill:none;stroke:black;stroke-width:1px;"/>
            </g>
            <g transform="matrix(1.46625,0,0,1.46857,-0.333333,0)">
                <path d="M244.969,78.988L292.559,78.988" style="fill:none;"/>
            </g>
            <g transform="matrix(1.46625,0,0,1.46857,-0.333333,0)">
                <path d="M244.969,78.988L274.559,78.988" style="fill:none;stroke:black;stroke-width:3px;"/>
            </g>
            <g transform="matrix(1.46625,0,0,1.46857,-0.333333,0)">
                <path d="M274.559,83.943L288.173,78.988L274.559,74.033L274.559,83.943Z" style="stroke:black;stroke-width:3px;stroke-linejoin:miter;"/>
            </g>
            <g transform="matrix(1.46625,0,0,1.46857,-0.333333,0)">
                <path d="M323.186,98.311L323.06,59.665" style="fill:none;"/>
            </g>
            <g transform="matrix(1.46625,0,0,1.46857,-0.333333,0)">
                <path d="M323.186,98.311L323.119,77.665" style="fill:none;stroke:black;stroke-width:3px;"/>
            </g>
            <g transform="matrix(1.46625,0,0,1.46857,-0.333333,0)">
                <path d="M328.074,77.649L323.075,64.051L318.164,77.681L328.074,77.649Z" style="stroke:black;stroke-width:3px;stroke-linejoin:miter;"/>
            </g>
            <g transform="matrix(1.46625,0,0,1.46857,-0.333333,0)">
                <path d="M56.63,79.467L104.22,79.467" style="fill:none;"/>
            </g>
            <g transform="matrix(1.46625,0,0,1.46857,-0.333333,0)">
                <path d="M56.63,79.467L86.22,79.467" style="fill:none;stroke:black;stroke-width:3px;"/>
            </g>
            <g transform="matrix(1.46625,0,0,1.46857,-0.333333,0)">
                <path d="M86.22,84.422L99.835,79.467L86.22,74.512L86.22,84.422Z" style="stroke:black;stroke-width:3px;stroke-linejoin:miter;"/>
            </g>
        </g>
    </g>
</svg>
