<?xml version="1.0" encoding="UTF-8" standalone="no"?>
<svg
   xmlns:dc="http://purl.org/dc/elements/1.1/"
   xmlns:cc="http://creativecommons.org/ns#"
   xmlns:rdf="http://www.w3.org/1999/02/22-rdf-syntax-ns#"
   xmlns:svg="http://www.w3.org/2000/svg"
   xmlns="http://www.w3.org/2000/svg"
   xmlns:sodipodi="http://sodipodi.sourceforge.net/DTD/sodipodi-0.dtd"
   xmlns:inkscape="http://www.inkscape.org/namespaces/inkscape"
   sodipodi:docname="tutorial3.svg"
   inkscape:version="1.0 (4035a4f, 2020-05-01)"
   id="svg8"
   version="1.1"
   viewBox="0 0 112 112"
   height="112mm"
   width="112mm">
  <defs
     id="defs2" />
  <sodipodi:namedview
     inkscape:window-maximized="0"
     inkscape:window-y="23"
     inkscape:window-x="0"
     inkscape:window-height="943"
     inkscape:window-width="1680"
     showgrid="false"
     inkscape:document-rotation="0"
     inkscape:current-layer="layer1-4"
     inkscape:document-units="mm"
     inkscape:cy="281.22024"
     inkscape:cx="344.26651"
     inkscape:zoom="0.67802445"
     inkscape:pageshadow="2"
     inkscape:pageopacity="0.0"
     borderopacity="1.0"
     bordercolor="#666666"
     pagecolor="#ffffff"
     id="base" />
  <metadata
     id="metadata5">
    <rdf:RDF>
      <cc:Work
         rdf:about="">
        <dc:format>image/svg+xml</dc:format>
        <dc:type
           rdf:resource="http://purl.org/dc/dcmitype/StillImage" />
        <dc:title></dc:title>
      </cc:Work>
    </rdf:RDF>
  </metadata>
  <g
     id="layer1"
     inkscape:groupmode="layer"
     inkscape:label="Layer 1">
    <g
       transform="translate(10.398575,12.497015)"
       inkscape:label="Layer 1"
       id="layer1-4">
      <rect
         y="-1.497015"
         x="61.101517"
         height="29.999998"
         width="29.999998"
         id="rect34"
         style="fill:#c10000;fill-opacity:1;fill-rule:evenodd;stroke:#000000;stroke-width:2;stroke-linejoin:miter;stroke-miterlimit:4;stroke-dasharray:none;stroke-opacity:1" />
      <rect
         style="fill:#c10000;fill-opacity:0.421053;fill-rule:evenodd;stroke:#000000;stroke-width:0;stroke-linejoin:miter;stroke-miterlimit:4;stroke-dasharray:none;stroke-opacity:1"
         id="rect863"
         width="29.999998"
         height="29.999998"
         x="30.601517"
         y="29.002985" />
      <rect
         style="fill:#000000;fill-opacity:1;stroke:#000000;stroke-width:0"
         id="rect2043"
         width="11"
         height="3"
         x="-5.4177451"
         y="59.726364"
         transform="matrix(0.71790388,-0.69614224,0.6946838,0.71931524,0,0)" />
      <rect
         transform="matrix(0.72295668,0.69089337,-0.67582802,0.73705935,0,0)"
         y="-3.289861"
         x="59.962669"
         height="3"
         width="11"
         id="rect2065"
         style="fill:#000000;fill-opacity:1;stroke:#000000;stroke-width:0" />
      <rect
         y="13.502985"
         x="68.101517"
         height="3"
         width="15.999999"
         id="rect2101"
         style="fill:#000000;fill-opacity:1;stroke:#000000;stroke-width:0" />
      <rect
         y="10.502986"
         x="68.101517"
         height="6"
         width="3"
         id="rect2105"
         style="fill:#000000;fill-opacity:1;stroke:#000000;stroke-width:0" />
      <rect
         style="fill:#000000;fill-opacity:1;stroke:#000000;stroke-width:0"
         id="rect2109"
         width="3"
         height="6"
         x="81.101517"
         y="10.502986" />
      <rect
         transform="matrix(0.69530493,0.71871486,-0.7272385,0.68638485,0,0)"
         y="-26.592999"
         x="33.749153"
         height="3.0304854"
         width="11.106571"
         id="rect2043-2"
         style="fill:#000000;fill-opacity:1;stroke:#000000;stroke-width:0" />
      <rect
         style="fill:#000000;fill-opacity:1;stroke:#000000;stroke-width:0"
         id="rect2065-8"
         width="11.107185"
         height="3.0308988"
         x="-23.900253"
         y="-46.032124"
         transform="matrix(-0.6991466,0.71497835,-0.73626269,-0.67669583,0,0)" />
      <rect
         style="fill:#c10000;fill-opacity:0;stroke:#000000;stroke-width:0;stroke-opacity:1"
         id="rect2809"
         width="4.1778679"
         height="82.303993"
         x="-66.428101"
         y="-2.0889339" />
      <path
         style="fill:#c10000;fill-opacity:0;stroke:#000000;stroke-width:0;stroke-opacity:1"
         id="path2813"
         d="m -43.034127,9.2662805 c 0.08767,1.4146105 0.190974,2.8283385 0.263028,4.2438305 0.120777,2.372709 0.208656,4.746979 0.315439,7.120359 0.562946,12.512013 1.108731,25.022865 1.537655,37.540292 0.205928,5.362514 0.345305,10.727716 0.556932,16.090026 0.08382,2.123837 0.08222,3.800401 0.529061,5.865614 0.171802,0.794034 0.467294,1.556168 0.700942,2.334255 0.920274,1.872234 0.854271,1.972411 2.072542,3.586403 0.337553,0.447196 0.684353,0.892226 1.085614,1.283272 0.341813,0.33311 0.674071,0.741251 1.131517,0.877411 1.948379,0.57994 4.786464,-1.940459 5.689775,-2.469279 0.542817,-0.631238 1.154115,-1.209519 1.628444,-1.893711 2.760108,-3.981299 3.841366,-9.019151 3.350998,-13.805664 -0.153056,-1.493996 -0.573524,-2.948366 -0.860286,-4.42255 -0.576281,-1.45986 -1.031527,-2.973507 -1.728844,-4.379579 -1.298578,-2.618468 -3.459885,-5.705914 -5.455235,-7.849021 -1.859968,-1.997702 -4.390887,-4.111424 -6.903934,-5.265235 -1.267889,-0.582123 -2.664111,-0.829542 -3.996166,-1.244316 -1.396336,-0.01574 -2.80444,-0.228807 -4.189008,-0.04721 -1.401355,0.183796 -2.800339,0.545508 -4.086021,1.132531 -3.643722,1.663668 -6.214321,3.31425 -8.64336,6.36193 -0.884074,1.109234 -1.673614,2.310781 -2.279402,3.593361 -0.604062,1.27893 -0.881456,2.687979 -1.322186,4.03197 -0.169521,1.333436 -0.494271,2.656216 -0.508566,4.000309 -0.04146,3.897826 1.228016,7.550889 4.29642,10.092264 2.622217,2.171825 4.120555,2.250837 7.301595,3.17803 1.350505,0.05913 2.703134,0.273418 4.05152,0.177379 4.431342,-0.315621 8.588063,-2.59802 11.854595,-5.501624 1.835047,-1.631167 2.179497,-3.286088 3.01098,-5.453033 0.07568,-0.983689 0.297375,-1.966982 0.227038,-2.951068 -0.159064,-2.225458 -0.956646,-4.207369 -2.328351,-5.970246 -0.838674,-1.077838 -1.92517,-1.937559 -2.887755,-2.906339 0,0 -1.959388,1.195766 -1.959388,1.195766 v 0 c 0.911254,0.975246 1.941256,1.851763 2.733762,2.925736 1.312738,1.778979 2.044896,3.682071 2.179571,5.885026 0.0587,0.960216 -0.15984,1.917364 -0.239757,2.876045 -1.570334,3.997727 -0.395272,1.735907 -2.989482,5.301393 -0.218162,0.299844 -0.297603,0.732499 -0.612159,0.928854 -2.033783,1.26955 -4.749987,2.123257 -7.124755,2.325909 -1.335222,0.113943 -2.678687,-0.08854 -4.018029,-0.132815 -3.166036,-0.90328 -4.574952,-0.944139 -7.176693,-3.100276 -3.005169,-2.490473 -4.278971,-6.069291 -4.251965,-9.891993 0.0093,-1.32334 0.324644,-2.626762 0.486963,-3.940143 0.447532,-1.326571 0.734287,-2.718745 1.342596,-3.979709 1.325224,-2.747053 3.052829,-4.586814 5.33703,-6.558153 0.518572,-0.447548 1.092454,-0.857803 1.729208,-1.110308 3.938585,-1.561828 4.046138,-1.177036 8.189563,-1.183667 1.325695,0.395991 2.712619,0.626372 3.97709,1.187974 5.232278,2.323854 9.909778,7.89269 12.364913,12.943424 0.68105,1.40107 1.115597,2.909078 1.673397,4.363617 0.265231,1.469536 0.66952,2.920667 0.795695,4.408604 0.407189,4.801825 -0.827834,9.912249 -3.747821,13.794362 -0.513204,0.682304 -1.170104,1.243599 -1.755156,1.865399 0.231495,-0.08661 0.941385,-0.248473 0.694481,-0.259818 -0.48914,-0.02246 -0.973465,0.330478 -1.451634,0.225031 -0.454199,-0.100163 -0.798308,-0.487439 -1.144881,-0.797629 -0.412713,-0.369387 -0.771768,-0.796848 -1.118859,-1.228479 -1.215777,-1.511885 -1.195705,-1.696767 -2.115749,-3.466121 -0.243824,-0.75847 -0.542808,-1.50137 -0.731472,-2.275406 -0.436888,-1.792441 -0.607944,-3.894031 -0.777148,-5.708848 -0.487346,-5.227143 -0.888978,-10.462723 -1.318326,-15.694726 -0.180887,-2.720412 -0.384931,-5.439384 -0.542665,-8.161237 -0.797873,-13.768083 -1.261579,-27.593483 -0.332415,-41.3675359 0,0 -2.510896,1.2793654 -2.510896,1.2793654 z" />
      <path
         style="fill:none;stroke:#000000;stroke-width:1;stroke-linecap:butt;stroke-linejoin:miter;stroke-miterlimit:4;stroke-dasharray:1, 1;stroke-dashoffset:0;stroke-opacity:1"
         d="M -0.39817356,28.651985 C 30.268343,28.6766 60.934861,28.701228 91.601372,28.72585"
         id="path2815" />
      <path
         id="path2819"
         d="M -0.39817356,59.151985 C 30.268343,59.1766 60.934861,59.201228 91.601372,59.22585"
         style="fill:none;stroke:#000000;stroke-width:1;stroke-linecap:butt;stroke-linejoin:miter;stroke-miterlimit:4;stroke-dasharray:1, 1;stroke-dashoffset:0;stroke-opacity:1" />
      <path
         id="path2821"
         d="M 30.323975,-1.9968954 C 30.299355,28.669621 30.274735,59.336139 30.250105,90.00265"
         style="fill:none;stroke:#000000;stroke-width:1;stroke-linecap:butt;stroke-linejoin:miter;stroke-miterlimit:4;stroke-dasharray:1, 1;stroke-dashoffset:0;stroke-opacity:1" />
      <path
         style="fill:none;stroke:#000000;stroke-width:1;stroke-linecap:butt;stroke-linejoin:miter;stroke-miterlimit:4;stroke-dasharray:1, 1;stroke-dashoffset:0;stroke-opacity:1"
         d="M 60.823975,-1.9968954 C 60.799355,28.669621 60.774735,59.336139 60.750105,90.00265"
         id="path2823" />
      <rect
         ry="0.96551764"
         rx="0.96551782"
         y="-10.56598"
         x="-8.4675398"
         height="108.13793"
         width="108.13794"
         id="rect905"
         style="fill:#ffffff;fill-opacity:0;stroke:#000000;stroke-width:3.86207" />
    </g>
  </g>
</svg>
